<svg id="Layer_1" xmlns="http://www.w3.org/2000/svg" viewBox="0 0 192 192"><style>.st0{fill:#fff}.st1{fill:#002672}.st2{fill:#ea021a}</style><path class="st0" d="M0 138.9h192V192H0z"/><path class="st1" d="M0 0h192v76H0z"/><path class="st0" d="M113.6 66.2c.8.3 2.3.9 4.2.9 3.4.1 5.1-1.2 6.5-4.2L142.2 23c-.8-.4-2.3-.8-3.7-.9-2.3 0-5.4.4-7.4 5.1l-5.8 13.6L114 22.3c-.8-.2-2.6-.6-3.8-.6-4 0-6.3 1.5-8.6 4l-11 12.2 8.9 14c1.7 2.6 3.8 3.8 7.4 3.8 2.3 0 4.2-.6 5.1-.9l-10.7-16.1 7.6-8.1 12.4 19.6-7.7 16zM90.1 51.1c0 2.9-1.1 4.7-6.9 4.7-.8 0-1.5 0-2-.1V16.5c0-3 1-6 6.8-6 .8 0 1.5.1 2.1.2v40.4zm-11.8-5.9c0 5.5-3.6 9.5-10.8 10.3-5.3.6-13-.1-16.5-.6-.1-.6-.2-1.3-.2-1.9 0-4.8 2.6-5.9 5-5.9 2.6 0 6.5.4 9.5.4 3.2 0 4.2-1.1 4.2-2.1 0-1.3-1.3-1.9-3.8-2.5l-6.9-1.3c-5.7-1.1-8.8-5-8.8-9.3 0-5.1 3.6-9.4 10.7-10.2 5.4-.6 12 .1 15.5.6.1.7.2 1.2.2 1.9 0 4.8-2.6 5.8-4.9 5.8-1.9 0-4.8-.3-8.1-.3-3.4 0-4.8.9-4.8 2 0 1.2 1.3 1.7 3.5 2l6.6 1.2c6.7 1.3 9.6 5.2 9.6 9.9"/><path class="st2" d="M0 76h192v62.8H0z"/><path class="st0" d="M21.2 118.1c-.2-2.2.4-3.4 1.6-3.4 1.2 0 4.4 1.5 8.7 1.5 4.6 0 6.4-1.7 6.4-3.8 0-1.5-.7-2.8-4.9-3.9l-4.7-1.3c-5-1.3-7-3.9-7-7 0-3.8 3.1-7.4 10.2-7.4 3.2 0 7.2.8 9.5 1.7.2 2.1-.4 3.2-1.5 3.2s-4-1.3-8.1-1.3c-4.2 0-5.8 1.6-5.8 3.6 0 1.3.6 2.6 4.5 3.6l4.8 1.3c5.4 1.5 7.5 4 7.5 7.4 0 4.1-3.2 7.8-10.8 7.8-3.6-.2-7.9-1-10.4-2M73.4 106.1c0 8.5-6 13.6-12.7 13.6-4 0-7.3-1.9-9.3-4.6v11.5c0 1-.6 1.7-2.2 1.7-.8 0-1.6-.1-2-.2v-35c.3-.1 1.2-.2 2-.2 1.7 0 2.2.7 2.2 1.7v2.7c1.9-2.8 5.1-4.6 9.3-4.6 6.6-.2 12.7 4.9 12.7 13.4m-4.4 0c0-5.8-3.9-9.8-9.2-9.8-3.6 0-6.9 2.1-8.5 5.1v9.5c1.5 3 4.8 5.1 8.5 5.1 5.3.1 9.2-4 9.2-9.9M77.5 106.1c0-7.8 5.8-13.6 13.5-13.6s13.5 5.8 13.5 13.6-5.8 13.6-13.5 13.6-13.5-5.8-13.5-13.6m22.7 0c0-6-4.1-9.8-9.2-9.8-5 0-9.2 3.8-9.2 9.8 0 6.2 4.1 10 9.2 10s9.2-3.8 9.2-10M125.7 94.8c0 1.6-.7 2-2.2 2-3 0-7.3 1-9.5 5.8v15.2c0 1-.6 1.7-2.2 1.7-.8 0-1.6-.1-2-.2V93.1c.3-.1 1.2-.2 2-.2 1.7 0 2.2.7 2.2 1.7v3.2c2.5-3.5 6.6-5.4 11.5-4.6.1.2.2 1 .2 1.6M150.2 118.1c-.2-2.2.4-3.4 1.6-3.4 1.2 0 4.4 1.5 8.7 1.5 4.6 0 6.4-1.7 6.4-3.8 0-1.5-.7-2.8-4.9-3.9l-4.7-1.3c-5-1.3-7-3.9-7-7 0-3.8 3.1-7.4 10.2-7.4 3.2 0 7.2.8 9.5 1.7.2 2.1-.4 3.2-1.5 3.2s-4-1.3-8.1-1.3c-4.2 0-5.8 1.6-5.8 3.6 0 1.3.6 2.6 4.5 3.6l4.8 1.3c5.4 1.5 7.5 4 7.5 7.4 0 4.1-3.2 7.8-10.8 7.8-3.7-.2-7.8-1-10.4-2M145.9 118.1c-2.2 1.1-4.9 1.8-7.6 1.8-5.1 0-8.3-3-8.3-8.1V88.3c0-1 .6-1.7 2.2-1.7.8 0 1.6.1 2 .3v6.3h10.5c0 .3.1 1 .1 1.7 0 1.6-.7 2-1.6 2H134v14.5c0 3.2 1.6 4.6 4.5 4.6 2.7 0 4.2-1 5.6-1 1.4 0 2.1 1 1.8 3.1"/><path class="st1" d="M144.1 164v12.6c-.3.1-.9.2-1.5.2-1.2 0-1.7-.4-1.7-1.2v-1.5c-1.5 1.5-3.8 2.9-6.9 2.9-4.4 0-6.8-2.9-6.8-6.1 0-4.7 5.1-6.9 13.7-6.3v-.5c0-3.1-1-4.8-4.8-4.8-2 0-3.7.4-4.9.7-.6.2-1 .3-1.4.3-.9 0-1.4-.9-1.2-2.5 1.9-.7 4.8-1.4 7.6-1.4 5.7 0 7.9 2.9 7.9 7.6zm-3.2 6.9v-3.7c-5.6-.2-10.5.4-10.5 3.9 0 1.7 1.5 3.3 4 3.3 2.6-.1 5-1.5 6.5-3.5zM64.8 164v12.6c-.3.1-.9.2-1.5.2-1.2 0-1.7-.4-1.7-1.2v-1.5c-1.5 1.5-3.8 2.9-6.9 2.9-4.4 0-6.8-2.9-6.8-6.1 0-4.7 5.1-6.9 13.7-6.3v-.5c0-3.1-1-4.8-4.8-4.8-2 0-3.7.4-4.9.7-.6.2-1 .3-1.4.3-.9 0-1.4-.9-1.2-2.5 1.9-.7 4.8-1.4 7.6-1.4 5.8 0 7.9 2.9 7.9 7.6zm-3.1 6.9v-3.7c-5.6-.2-10.5.4-10.5 3.9 0 1.7 1.5 3.3 4 3.3 2.5-.1 4.9-1.5 6.5-3.5zM82 158.2c0 1.3-.6 1.6-1.8 1.6-2.3 0-5.5.7-7.1 4.3v11.4c0 .8-.4 1.3-1.8 1.3-.6 0-1.2-.1-1.6-.2v-19.8c.3-.1 1-.2 1.6-.2 1.4 0 1.8.5 1.8 1.3v2.4c1.9-2.7 5-4.1 8.7-3.5.1.3.2.8.2 1.4M105.8 176.6v-19.8c.3-.1 1-.2 1.6-.2 1.3 0 1.7.5 1.7 1.3v1.5c1.5-1.7 3.8-3 6.7-3 4.1 0 7.4 2.6 7.4 8.5v10.6c0 .8-.5 1.3-1.8 1.3-.6 0-1.2-.1-1.6-.2v-11.3c0-4-2-5.9-4.9-5.9-2.3 0-4.8 1.6-5.8 3.4v12.6c0 .8-.4 1.3-1.8 1.3-.5.1-1.2 0-1.5-.1M101.8 168H86.3c.5 3.8 3.2 6 7.1 6 1.7 0 3-.4 4.3-.8.8-.3 1.3-.4 1.6-.4.9 0 1.5.8 1.3 2.6-1.7.8-4.5 1.7-7.4 1.7-6.1 0-10.4-4.3-10.4-10.5 0-5.9 4.3-10.2 9.9-10.2 6.1 0 9.2 4.8 9.2 9.6 0 .6 0 1.3-.1 2m-15.5-2.8h12.2c-.1-3.4-2.3-6-5.8-6-3.1.1-5.9 2.1-6.4 6"/></svg>