<?xml version="1.0" encoding="UTF-8"?>
<svg viewBox="0 0 100 100" version="1.1" xmlns="http://www.w3.org/2000/svg" xmlns:xlink="http://www.w3.org/1999/xlink">
    <!-- Generator: Sketch 55.2 (78181) - https://sketchapp.com -->
    <title>/Square/SVG/1302-Mobile-Logo</title>
    <desc>Created with Sketch.</desc>
    <g id="1302-Mobile-Logo" stroke="none" stroke-width="1" fill="none" fill-rule="evenodd">
        <g id="Logo/Sky-Sports/UK/Square/The-Ashes">
            <g id="Sky-Sports-The-Ashes">
                <g id="Background" fill-rule="nonzero">
                    <rect id="White" fill="#FFFFFF" x="0" y="71.9551282" width="100.160256" height="28.2051282"></rect>
                    <rect id="Red" fill="#EA021A" x="0" y="38.8621795" width="100.160256" height="33.4935897"></rect>
                    <rect id="Blue" fill="#002672" x="0" y="0" width="100.160256" height="39.6233974"></rect>
                </g>
                <g id="Sports" transform="translate(11.017628, 45.072115)" fill="#FFFFFF" fill-rule="nonzero">
                    <path d="M0.0400641026,16.4463141 C-0.100160256,15.3044872 0.260416667,14.6634615 0.861378205,14.6634615 C1.5224359,14.6634615 3.125,15.4046474 5.38862179,15.4046474 C7.79246795,15.4046474 8.71394231,14.5232372 8.71394231,13.4014423 C8.71394231,12.6201923 8.37339744,11.9791667 6.16987179,11.3782051 L3.70592949,10.6971154 C1.08173077,9.97596154 0.0200320513,8.67387821 0.0200320513,7.01121795 C0.0200320513,5.00801282 1.62259615,3.14503205 5.30849359,3.14503205 C6.97115385,3.14503205 9.03445513,3.54567308 10.2564103,4.02644231 C10.3966346,5.14823718 10.0360577,5.74919872 9.47516026,5.74919872 C8.87419872,5.74919872 7.35176282,5.06810897 5.28846154,5.06810897 C3.0849359,5.06810897 2.24358974,5.86939103 2.24358974,6.93108974 C2.24358974,7.61217949 2.56410256,8.25320513 4.56730769,8.81410256 L7.05128205,9.49519231 C9.83573718,10.2764423 10.9375,11.5785256 10.9375,13.3413462 C10.9375,15.4847756 9.25480769,17.4078526 5.28846154,17.4078526 C3.54567308,17.3878205 1.36217949,16.9671474 0.0400641026,16.4463141" id="Path"></path>
                    <path d="M27.1834936,10.2363782 C27.1834936,14.6834936 24.0584936,17.3677885 20.5729167,17.3677885 C18.4495192,17.3677885 16.7668269,16.3862179 15.7652244,14.9639423 L15.7652244,20.9935897 C15.7652244,21.5144231 15.4847756,21.8549679 14.5833333,21.8549679 C14.1826923,21.8549679 13.7620192,21.7948718 13.5616987,21.7347756 L13.5616987,3.44551282 C13.7620192,3.38541667 14.1826923,3.30528846 14.5833333,3.30528846 C15.4647436,3.30528846 15.7652244,3.64583333 15.7652244,4.16666667 L15.7652244,5.54887821 C16.7668269,4.12660256 18.4495192,3.14492153 20.5729167,3.14492153 C24.0584936,3.125 27.1834936,5.82932692 27.1834936,10.2363782 M24.9198718,10.2363782 C24.9198718,7.19150641 22.8966346,5.10817308 20.1722756,5.10817308 C18.2892628,5.10817308 16.5264423,6.18990385 15.7652244,7.7724359 L15.7652244,12.7604167 C16.5464744,14.3429487 18.2892628,15.4246795 20.1722756,15.4246795 C22.8966346,15.4046474 24.9198718,13.3213141 24.9198718,10.2363782" id="Shape"></path>
                    <path d="M29.3870192,10.2363782 C29.3870192,6.16987179 32.3918269,3.125 36.4383013,3.125 C40.4847756,3.125 43.4895833,6.16987179 43.4895833,10.2363782 C43.4895833,14.3229167 40.4847756,17.3677885 36.4383013,17.3677885 C32.3918269,17.3677885 29.3870192,14.3229167 29.3870192,10.2363782 M41.2059295,10.2363782 C41.2059295,7.09134615 39.0625,5.10817308 36.4182692,5.10817308 C33.7740385,5.10817308 31.630609,7.09134615 31.630609,10.2363782 C31.630609,13.4214744 33.7740385,15.4246795 36.4182692,15.4246795 C39.0625,15.4246795 41.2059295,13.4014423 41.2059295,10.2363782" id="Shape"></path>
                    <path d="M54.5072115,4.36698718 C54.5072115,5.18830128 54.1266026,5.38862179 53.3253205,5.38862179 C51.7427885,5.38862179 49.5192308,5.90945513 48.3974359,8.43349359 L48.3974359,16.3461538 C48.3974359,16.8870192 48.1169872,17.2075321 47.2155449,17.2075321 C46.8149038,17.2075321 46.3942308,17.1474359 46.1939103,17.0873397 L46.1939103,3.46554487 C46.3942308,3.40544872 46.8149038,3.32532051 47.2155449,3.32532051 C48.0969551,3.32532051 48.3974359,3.66586538 48.3974359,4.18669872 L48.3974359,5.84935897 C49.6594551,4.04647436 51.8429487,3.04487179 54.4070513,3.46554487 C54.4471154,3.62580128 54.5072115,4.02644231 54.5072115,4.36698718" id="Path"></path>
                    <path d="M67.2676282,16.4463141 C67.1274038,15.3044872 67.4879808,14.6634615 68.0889423,14.6634615 C68.75,14.6634615 70.3525641,15.4046474 72.6161859,15.4046474 C75.0200321,15.4046474 75.9415064,14.5232372 75.9415064,13.4014423 C75.9415064,12.6201923 75.6009615,11.9791667 73.3974359,11.3782051 L70.9334936,10.6971154 C68.3092949,9.97596154 67.2475962,8.67387821 67.2475962,7.01121795 C67.2475962,5.00801282 68.8501603,3.14503205 72.5360577,3.14503205 C74.1987179,3.14503205 76.2620192,3.54567308 77.4839744,4.02644231 C77.6241987,5.14823718 77.2636218,5.74919872 76.7027244,5.74919872 C76.1017628,5.74919872 74.5793269,5.06810897 72.5160256,5.06810897 C70.3125,5.06810897 69.4711538,5.86939103 69.4711538,6.93108974 C69.4711538,7.61217949 69.7916667,8.25320513 71.7948718,8.81410256 L74.2788462,9.49519231 C77.0633013,10.2764423 78.1650641,11.5785256 78.1650641,13.3413462 C78.1650641,15.4847756 76.4823718,17.4078526 72.5160256,17.4078526 C70.7732372,17.3878205 68.5897436,16.9671474 67.2676282,16.4463141" id="Path"></path>
                    <path d="M65.0040064,16.4463141 C63.8221154,17.0272436 62.4599359,17.3677885 61.0576923,17.3677885 C58.3733974,17.3677885 56.7307692,15.8253205 56.7307692,13.1610577 L56.7307692,0.901442308 C56.7307692,0.380608974 57.0112179,0.0400641026 57.9126603,0.0400641026 C58.3133013,0.0400641026 58.7339744,0.120192308 58.9342949,0.220352564 L58.9342949,3.46554487 L64.4030449,3.46554487 C64.4230769,3.64583333 64.4831731,4.00641026 64.4831731,4.34695513 C64.4831731,5.14823718 64.1426282,5.40865385 63.661859,5.40865385 L58.9342949,5.40865385 L58.9342949,13.0008013 C58.9342949,14.6634615 59.7355769,15.3846154 61.2780449,15.3846154 C62.6802885,15.3846154 63.5216346,14.84375 64.1626603,14.84375 C64.8036859,14.8036859 65.1241987,15.3846154 65.0040064,16.4463141" id="Path"></path>
                </g>
                <g id="Sky" transform="translate(25.901442, 5.448718)" fill="#FFFFFF" fill-rule="nonzero">
                    <path d="M33.2932692,29.0464744 C33.6939103,29.2467949 34.4951923,29.4871795 35.5168269,29.5272436 C37.2596154,29.5673077 38.2011218,28.90625 38.9022436,27.34375 L48.2371795,6.53044872 C47.8565705,6.33012821 46.9951923,6.08974359 46.2940705,6.06971154 C45.0921474,6.04967949 43.4895833,6.2900641 42.4479167,8.75400641 L39.4230769,15.8854167 L33.4935897,6.22996795 C33.1129808,6.10977564 32.1714744,5.94951923 31.4903846,5.94951923 C29.4070513,5.94951923 28.2251603,6.73076923 27.0232372,8.03285256 L21.2540064,14.3429487 L25.8814103,21.6346154 C26.7427885,22.9567308 27.8645833,23.6378205 29.7075321,23.6378205 C30.9094551,23.6378205 31.9110577,23.3573718 32.3717949,23.1370192 L26.8028846,14.7235577 L30.7491987,10.536859 L37.2395833,20.713141 L33.2932692,29.0464744 Z M21.0536859,21.1738782 C21.0536859,22.7163462 20.4527244,23.5977564 17.4479167,23.5977564 C17.0472756,23.5977564 16.7067308,23.5777244 16.3661859,23.5176282 L16.3661859,3.1650641 C16.3661859,1.62259615 16.8870192,0 19.911859,0 C20.2924679,0 20.6730769,0.0400641026 21.0336538,0.120192308 L21.0336538,21.1738782 L21.0536859,21.1738782 Z M14.8838141,18.0889423 C14.8838141,20.9535256 13.0208333,23.036859 9.21474359,23.4575321 C6.47035256,23.7580128 2.48397436,23.3974359 0.580929487,23.1770833 C0.500801282,22.8766026 0.460737179,22.4759615 0.460737179,22.1754808 C0.460737179,19.6714744 1.82291667,19.1105769 3.0849359,19.1105769 C4.40705128,19.1105769 6.47035256,19.3309295 8.01282051,19.3309295 C9.71554487,19.3309295 10.2163462,18.75 10.2163462,18.2091346 C10.2163462,17.4879808 9.53525641,17.1875 8.21314103,16.9471154 L4.60737179,16.2459936 C1.6025641,15.6650641 1.42108547e-14,13.6017628 1.42108547e-14,11.3982372 C1.42108547e-14,8.71394231 1.90304487,6.49038462 5.60897436,6.06971154 C8.43349359,5.76923077 11.8589744,6.10977564 13.7219551,6.33012821 C13.7820513,6.65064103 13.8221154,6.95112179 13.8221154,7.29166667 C13.8221154,9.79567308 12.5,10.3165064 11.2379808,10.3165064 C10.2564103,10.3165064 8.75400641,10.1362179 7.03125,10.1362179 C5.26842949,10.1362179 4.54727564,10.6169872 4.54727564,11.2179487 C4.54727564,11.8389423 5.24839744,12.099359 6.35016026,12.2996795 L9.79567308,12.9407051 C13.3613782,13.6217949 14.8838141,15.625 14.8838141,18.0889423 L14.8838141,18.0889423 Z" id="Shape"></path>
                </g>
                <g id="The-Ashes" transform="translate(6.410256, 77.323718)" fill="#002672" fill-rule="nonzero">
                    <path d="M6.33012821,14.2828526 C5.4286859,14.7235577 4.38701923,14.9839744 3.34535256,14.9839744 C1.30208333,14.9839744 0.0801282051,13.8020833 0.0801282051,11.7788462 L0.0801282051,2.50400641 C0.0801282051,2.08333333 0.320512821,1.80288462 1.00160256,1.80288462 C1.28205128,1.80288462 1.58253205,1.86298077 1.76282051,1.90304487 L1.76282051,4.38701923 L5.88942308,4.38701923 C5.90945513,4.52724359 5.94951923,4.80769231 5.94951923,5.06810897 C5.94951923,5.64903846 5.70913462,5.86939103 5.30849359,5.86939103 L1.74278846,5.86939103 L1.74278846,11.6386218 C1.74278846,12.900641 2.34375,13.4415064 3.52564103,13.4415064 C4.58733974,13.4415064 5.20833333,13.0208333 5.68910256,13.0208333 C6.18990385,13.0408654 6.45032051,13.4415064 6.33012821,14.2828526 Z" id="Path"></path>
                    <path d="M16.8469551,8.59375 L16.8469551,14.1826923 C16.8469551,14.6033654 16.6266026,14.84375 15.9455128,14.84375 C15.6650641,14.84375 15.3445513,14.8036859 15.1642628,14.7636218 L15.1642628,8.81410256 C15.1642628,6.67067308 14.1025641,5.64903846 12.5600962,5.64903846 C11.318109,5.64903846 9.99599359,6.51041667 9.45512821,7.53205128 L9.45512821,14.2027244 C9.45512821,14.6233974 9.23477564,14.8637821 8.5536859,14.8637821 C8.27323718,14.8637821 7.95272436,14.8237179 7.7724359,14.7836538 L7.7724359,0.801282051 C7.7724359,0.400641026 7.99278846,0.140224359 8.67387821,0.140224359 C8.97435897,0.140224359 9.31490385,0.180288462 9.45512821,0.220352564 L9.45512821,5.80929487 C10.2163462,4.90785256 11.3782051,4.12660256 12.9607372,4.12660256 C15.0841346,4.14663462 16.8469551,5.52884615 16.8469551,8.59375 Z" id="Path"></path>
                    <path d="M28.6057692,10.1963141 L20.4727564,10.1963141 C20.713141,12.2596154 22.1153846,13.4214744 24.2387821,13.4214744 C25.1402244,13.4214744 25.8213141,13.2411859 26.4823718,13.0208333 C26.9230769,12.8605769 27.1233974,12.8004808 27.2836538,12.8004808 C27.744391,12.8004808 28.0649038,13.1610577 27.9847756,14.1025641 C27.0633013,14.5232372 25.6610577,14.9439103 24.1586538,14.9439103 C20.9134615,14.9439103 18.7099359,12.7604167 18.7099359,9.49519231 C18.7099359,6.39022436 21.0336538,4.10657051 23.8982372,4.10657051 C27.1033654,4.10657051 28.6658654,6.65064103 28.6658654,9.13461538 C28.6658654,9.47516026 28.6458333,9.83573718 28.6057692,10.1963141 Z M20.4727564,8.85416667 L27.0032051,8.85416667 C26.943109,7.0713141 25.7612179,5.58894231 23.8982372,5.58894231 C22.2355769,5.58894231 20.7331731,6.73076923 20.4727564,8.85416667 Z" id="Shape"></path>
                    <path d="M44.7716346,8.11298077 L44.7716346,14.7636218 C44.5913462,14.8036859 44.2908654,14.84375 43.9903846,14.84375 C43.3894231,14.84375 43.0889423,14.6233974 43.0889423,14.1826923 L43.0889423,13.3213141 C42.1274038,14.3629808 40.9254808,14.9839744 39.3629808,14.9839744 C37.0392628,14.9839744 35.7171474,13.4815705 35.7171474,11.8189103 C35.7171474,9.29487179 38.4415064,8.17307692 43.0488782,8.49358974 L43.0488782,8.17307692 C43.0488782,6.41025641 42.5280449,5.62900641 40.4847756,5.62900641 C39.6634615,5.62900641 38.5016026,5.88942308 37.9206731,6.06971154 C37.6001603,6.16987179 37.3597756,6.25 37.1394231,6.25 C36.6586538,6.25 36.3581731,5.82932692 36.4983974,4.94791667 C37.5400641,4.58733974 39.0825321,4.18669872 40.5649038,4.18669872 C43.6298077,4.14663462 44.7716346,5.52884615 44.7716346,8.11298077 Z M43.0689103,11.7988782 L43.0689103,9.75560897 C40.0240385,9.53525641 37.4399038,9.93589744 37.4399038,11.7788462 C37.4399038,12.7003205 38.2211538,13.5416667 39.6233974,13.5416667 C41.0456731,13.5416667 42.2876603,12.8405449 43.0689103,11.7988782 Z" id="Shape"></path>
                    <path d="M46.7147436,14.2828526 C46.5544872,13.4214744 46.8549679,12.9607372 47.3557692,12.9607372 C47.8565705,12.9607372 49.0584936,13.5216346 50.78125,13.5216346 C52.6041667,13.5216346 53.3052885,12.8405449 53.3052885,11.9791667 C53.3052885,11.3982372 53.0448718,10.8974359 51.3822115,10.4366987 L49.4991987,9.91586538 C47.4959936,9.375 46.6947115,8.37339744 46.6947115,7.11137821 C46.6947115,5.58894231 47.9166667,4.16666667 50.7011218,4.16666667 C51.963141,4.16666667 53.525641,4.46714744 54.4671474,4.84775641 C54.6274038,5.68910256 54.3669872,6.14983974 53.8261218,6.14983974 C53.3653846,6.14983974 52.2636218,5.62900641 50.7211538,5.62900641 C49.0184295,5.62900641 48.3974359,6.22996795 48.3974359,7.05128205 C48.3974359,7.57211538 48.6378205,8.05288462 50.1602564,8.49358974 L52.0833333,9.01442308 C54.1666667,9.61538462 55.0280449,10.5969551 55.0280449,11.9591346 C55.0280449,13.5616987 53.7459936,15.0040064 50.7411859,15.0040064 C49.3790064,14.9639423 47.6963141,14.6634615 46.7147436,14.2828526 Z" id="Path"></path>
                    <path d="M65.9054487,8.59375 L65.9054487,14.1826923 C65.9054487,14.6033654 65.6850962,14.84375 65.0040064,14.84375 C64.7235577,14.84375 64.4030449,14.8036859 64.2227564,14.7636218 L64.2227564,8.81410256 C64.2227564,6.67067308 63.1610577,5.64903846 61.6185897,5.64903846 C60.3766026,5.64903846 59.0544872,6.51041667 58.5136218,7.53205128 L58.5136218,14.2027244 C58.5136218,14.6233974 58.2932692,14.8637821 57.6121795,14.8637821 C57.3317308,14.8637821 57.0112179,14.8237179 56.8309295,14.7836538 L56.8309295,0.801282051 C56.8309295,0.400641026 57.0512821,0.140224359 57.7323718,0.140224359 C58.0328526,0.140224359 58.3733974,0.180288462 58.5136218,0.220352564 L58.5136218,5.80929487 C59.2748397,4.90785256 60.4366987,4.12660256 62.0192308,4.12660256 C64.1426282,4.14663462 65.9054487,5.52884615 65.9054487,8.59375 Z" id="Path"></path>
                    <path d="M77.6642628,10.1963141 L69.53125,10.1963141 C69.7716346,12.2596154 71.1738782,13.4214744 73.2972756,13.4214744 C74.1987179,13.4214744 74.8798077,13.2411859 75.5408654,13.0208333 C75.9815705,12.8605769 76.181891,12.8004808 76.3421474,12.8004808 C76.8028846,12.8004808 77.1233974,13.1610577 77.0432692,14.1025641 C76.1217949,14.5232372 74.7195513,14.9439103 73.2171474,14.9439103 C69.9719551,14.9439103 67.7684295,12.7604167 67.7684295,9.49519231 C67.7684295,6.39022436 70.0921474,4.10657051 72.9567308,4.10657051 C76.161859,4.10657051 77.724359,6.65064103 77.724359,9.13461538 C77.724359,9.47516026 77.7043269,9.83573718 77.6642628,10.1963141 Z M69.5512821,8.85416667 L76.0817308,8.85416667 C76.0216346,7.0713141 74.8397436,5.58894231 72.9767628,5.58894231 C71.3141026,5.58894231 69.8116987,6.73076923 69.5512821,8.85416667 Z" id="Shape"></path>
                    <path d="M79.1266026,14.2828526 C78.9663462,13.4214744 79.2668269,12.9607372 79.7676282,12.9607372 C80.2684295,12.9607372 81.4703526,13.5216346 83.193109,13.5216346 C85.0160256,13.5216346 85.7171474,12.8405449 85.7171474,11.9791667 C85.7171474,11.3982372 85.4567308,10.8974359 83.7940705,10.4366987 L81.9110577,9.91586538 C79.9078526,9.375 79.1065705,8.37339744 79.1065705,7.11137821 C79.1065705,5.58894231 80.3285256,4.16666667 83.1129808,4.16666667 C84.375,4.16666667 85.9375,4.46714744 86.8790064,4.84775641 C87.0392628,5.68910256 86.7788462,6.14983974 86.2379808,6.14983974 C85.7772436,6.14983974 84.6754808,5.62900641 83.1330128,5.62900641 C81.4302885,5.62900641 80.8092949,6.22996795 80.8092949,7.05128205 C80.8092949,7.57211538 81.0496795,8.05288462 82.5721154,8.49358974 L84.4951923,9.01442308 C86.5785256,9.61538462 87.4399038,10.5969551 87.4399038,11.9591346 C87.4399038,13.5616987 86.1578526,15.0040064 83.1530449,15.0040064 C81.7708333,14.9639423 80.1081731,14.6634615 79.1266026,14.2828526 Z" id="Path"></path>
                </g>
            </g>
        </g>
    </g>
</svg>