<?xml version="1.0" encoding="UTF-8"?>
<svg viewBox="0 0 96 96" version="1.1" xmlns="http://www.w3.org/2000/svg" xmlns:xlink="http://www.w3.org/1999/xlink">
    <!-- Generator: Sketch 48.2 (47327) - http://www.bohemiancoding.com/sketch -->
    <title>/Square/SVG/1306-Mobile-Logo</title>
    <desc>Created with Sketch.</desc>
    <defs></defs>
    <g id="Page-1" stroke="none" stroke-width="1" fill="none" fill-rule="evenodd">
        <g id="1306-Mobile-Logo">
            <g id="Logo/Sky-Sports/UK/Square/F1">
                <g id="Group">
                    <rect id="Rectangle-path" fill="#FFFFFF" fill-rule="nonzero" x="0" y="68.9664" width="96" height="27.0336"></rect>
                    <rect id="Rectangle-path" fill="#EA021A" fill-rule="nonzero" x="0" y="37.248" width="96" height="32.1024"></rect>
                    <path d="M10.5984,58.9632 C10.464,57.8688 10.8096,57.2544 11.3856,57.2544 C12.0192,57.2544 13.5552,57.9648 15.7248,57.9648 C18.0288,57.9648 18.912,57.12 18.912,56.0448 C18.912,55.296 18.5856,54.6816 16.4736,54.1056 L14.112,53.4528 C11.5968,52.7616 10.5792,51.5136 10.5792,49.92 C10.5792,48 12.1152,46.2144 15.648,46.2144 C17.2416,46.2144 19.2192,46.5984 20.3904,47.0592 C20.5248,48.1344 20.1792,48.7104 19.6416,48.7104 C19.0656,48.7104 17.6064,48.0576 15.6288,48.0576 C13.5168,48.0576 12.7104,48.8256 12.7104,49.8432 C12.7104,50.496 13.0176,51.1104 14.9376,51.648 L17.3184,52.3008 C19.9872,53.0496 21.0432,54.2976 21.0432,55.9872 C21.0432,58.0416 19.4304,59.8848 15.6288,59.8848 C13.9584,59.8656 11.8656,59.4624 10.5984,58.9632" id="Shape" fill="#FFFFFF" fill-rule="nonzero"></path>
                    <path d="M36.6144,53.0112 C36.6144,57.2736 33.6192,59.8464 30.2784,59.8464 C28.2432,59.8464 26.6304,58.9056 25.6704,57.5424 L25.6704,63.3216 C25.6704,63.8208 25.4016,64.1472 24.5376,64.1472 C24.1536,64.1472 23.7504,64.0896 23.5584,64.032 L23.5584,46.5024 C23.7504,46.4448 24.1536,46.368 24.5376,46.368 C25.3824,46.368 25.6704,46.6944 25.6704,47.1936 L25.6704,48.5184 C26.6304,47.1552 28.2432,46.2144 30.2784,46.2144 C33.6192,46.1952 36.6144,48.7872 36.6144,53.0112 M34.4448,53.0112 C34.4448,50.0928 32.5056,48.096 29.8944,48.096 C28.0896,48.096 26.4,49.1328 25.6704,50.6496 L25.6704,55.4304 C26.4192,56.9472 28.0896,57.984 29.8944,57.984 C32.5056,57.9648 34.4448,55.968 34.4448,53.0112" id="Shape" fill="#FFFFFF" fill-rule="nonzero"></path>
                    <path d="M38.7264,53.0112 C38.7264,49.1136 41.6064,46.1952 45.4848,46.1952 C49.3632,46.1952 52.2432,49.1136 52.2432,53.0112 C52.2432,56.928 49.3632,59.8464 45.4848,59.8464 C41.6064,59.8464 38.7264,56.928 38.7264,53.0112 M50.0544,53.0112 C50.0544,49.9968 48,48.096 45.4656,48.096 C42.9312,48.096 40.8768,49.9968 40.8768,53.0112 C40.8768,56.064 42.9312,57.984 45.4656,57.984 C48,57.984 50.0544,56.0448 50.0544,53.0112" id="Shape" fill="#FFFFFF" fill-rule="nonzero"></path>
                    <path d="M62.8032,47.3856 C62.8032,48.1728 62.4384,48.3648 61.6704,48.3648 C60.1536,48.3648 58.0224,48.864 56.9472,51.2832 L56.9472,58.8672 C56.9472,59.3856 56.6784,59.6928 55.8144,59.6928 C55.4304,59.6928 55.0272,59.6352 54.8352,59.5776 L54.8352,46.5216 C55.0272,46.464 55.4304,46.3872 55.8144,46.3872 C56.6592,46.3872 56.9472,46.7136 56.9472,47.2128 L56.9472,48.8064 C58.1568,47.0784 60.2496,46.1184 62.7072,46.5216 C62.7456,46.6752 62.8032,47.0592 62.8032,47.3856" id="Shape" fill="#FFFFFF" fill-rule="nonzero"></path>
                    <path d="M75.0336,58.9632 C74.8992,57.8688 75.2448,57.2544 75.8208,57.2544 C76.4544,57.2544 77.9904,57.9648 80.16,57.9648 C82.464,57.9648 83.3472,57.12 83.3472,56.0448 C83.3472,55.296 83.0208,54.6816 80.9088,54.1056 L78.5472,53.4528 C76.032,52.7616 75.0144,51.5136 75.0144,49.92 C75.0144,48 76.5504,46.2144 80.0832,46.2144 C81.6768,46.2144 83.6544,46.5984 84.8256,47.0592 C84.96,48.1344 84.6144,48.7104 84.0768,48.7104 C83.5008,48.7104 82.0416,48.0576 80.064,48.0576 C77.952,48.0576 77.1456,48.8256 77.1456,49.8432 C77.1456,50.496 77.4528,51.1104 79.3728,51.648 L81.7536,52.3008 C84.4224,53.0496 85.4784,54.2976 85.4784,55.9872 C85.4784,58.0416 83.8656,59.8848 80.064,59.8848 C78.3936,59.8656 76.3008,59.4624 75.0336,58.9632" id="Shape" fill="#FFFFFF" fill-rule="nonzero"></path>
                    <path d="M72.864,58.9632 C71.7312,59.52 70.4256,59.8464 69.0816,59.8464 C66.5088,59.8464 64.9344,58.368 64.9344,55.8144 L64.9344,44.064 C64.9344,43.5648 65.2032,43.2384 66.0672,43.2384 C66.4512,43.2384 66.8544,43.3152 67.0464,43.4112 L67.0464,46.5216 L72.288,46.5216 C72.3072,46.6944 72.3648,47.04 72.3648,47.3664 C72.3648,48.1344 72.0384,48.384 71.5776,48.384 L67.0464,48.384 L67.0464,55.6608 C67.0464,57.2544 67.8144,57.9456 69.2928,57.9456 C70.6368,57.9456 71.4432,57.4272 72.0576,57.4272 C72.672,57.3888 72.9792,57.9456 72.864,58.9632" id="Shape" fill="#FFFFFF" fill-rule="nonzero"></path>
                    <rect id="Rectangle-path" fill="#002672" fill-rule="nonzero" x="0" y="0" width="96" height="37.9776"></rect>
                    <path d="M56.736,33.0624 C57.12,33.2544 57.888,33.4848 58.8672,33.5232 C60.5376,33.5616 61.44,32.928 62.112,31.4304 L71.0592,11.4816 C70.6944,11.2896 69.8688,11.0592 69.1968,11.04 C68.0448,11.0208 66.5088,11.2512 65.5104,13.6128 L62.6112,20.448 L56.928,11.1936 C56.5632,11.0784 55.6608,10.9248 55.008,10.9248 C53.0112,10.9248 51.8784,11.6736 50.7264,12.9216 L45.1968,18.9696 L49.632,25.9584 C50.4576,27.2256 51.5328,27.8784 53.2992,27.8784 C54.4512,27.8784 55.4112,27.6096 55.8528,27.3984 L50.5152,19.3344 L54.2976,15.3216 L60.5184,25.0752 L56.736,33.0624 Z M45.0048,25.5168 C45.0048,26.9952 44.4288,27.84 41.5488,27.84 C41.1648,27.84 40.8384,27.8208 40.512,27.7632 L40.512,8.256 C40.512,6.7776 41.0112,5.2224 43.9104,5.2224 C44.2752,5.2224 44.64,5.2608 44.9856,5.3376 L44.9856,25.5168 L45.0048,25.5168 Z M39.0912,22.56 C39.0912,25.3056 37.3056,27.3024 33.6576,27.7056 C31.0272,27.9936 27.2064,27.648 25.3824,27.4368 C25.3056,27.1488 25.2672,26.7648 25.2672,26.4768 C25.2672,24.0768 26.5728,23.5392 27.7824,23.5392 C29.0496,23.5392 31.0272,23.7504 32.5056,23.7504 C34.1376,23.7504 34.6176,23.1936 34.6176,22.6752 C34.6176,21.984 33.9648,21.696 32.6976,21.4656 L29.2416,20.7936 C26.3616,20.2368 24.8256,18.2592 24.8256,16.1472 C24.8256,13.5744 26.6496,11.4432 30.2016,11.04 C32.9088,10.752 36.192,11.0784 37.9776,11.2896 C38.0352,11.5968 38.0736,11.8848 38.0736,12.2112 C38.0736,14.6112 36.8064,15.1104 35.5968,15.1104 C34.656,15.1104 33.216,14.9376 31.5648,14.9376 C29.8752,14.9376 29.184,15.3984 29.184,15.9744 C29.184,16.5696 29.856,16.8192 30.912,17.0112 L34.2144,17.6256 C37.632,18.2784 39.0912,20.1984 39.0912,22.56 Z" id="Shape" fill="#FFFFFF" fill-rule="nonzero"></path>
                    <path d="M31.4496,83.3664 C29.568,85.1328 25.4784,89.1072 23.2704,91.2576 L13.5552,91.2576 C13.5552,91.2576 21.3312,83.5008 25.6512,79.2384 C30.1056,74.9952 32.3328,74.0352 40.4928,74.0352 L70.2336,74.0352 L63.8016,80.4672 L41.1072,80.4672 C35.3664,80.4672 34.08,80.8704 31.4496,83.3664 Z M62.7456,81.5232 L41.9136,81.5232 C35.5584,81.5232 34.4448,81.8688 31.7376,84.576 C29.184,87.1296 25.056,91.2384 25.056,91.2384 L34.08,91.2384 L36.2304,89.088 C37.6512,87.6672 38.3808,87.5328 41.3568,87.5328 L56.7552,87.5328 L62.7456,81.5232 Z M65.2224,91.2576 L82.4448,74.0352 L72.0768,74.0352 L54.8544,91.2576 L65.2224,91.2576 Z" id="Shape" fill="#FF1E00" fill-rule="nonzero"></path>
                </g>
            </g>
        </g>
    </g>
</svg>