<?xml version="1.0" encoding="utf-8"?>
<!-- Generator: Adobe Illustrator 18.1.1, SVG Export Plug-In . SVG Version: 6.00 Build 0)  -->
<svg version="1.1" id="Layer_1" xmlns="http://www.w3.org/2000/svg" xmlns:xlink="http://www.w3.org/1999/xlink" x="0px" y="0px"
	 viewBox="0 0 171.7 171.6" enable-background="new 0 0 171.7 171.6" xml:space="preserve">
<rect fill="#002672" width="171.7" height="68"/>
<path fill="#FFFFFF" d="M101.6,59.2c0.7,0.3,2.1,0.8,3.8,0.8c3,0.1,4.6-1.1,5.8-3.8l16-35.7c-0.7-0.4-2.1-0.7-3.3-0.8
	c-2.1,0-4.8,0.4-6.6,4.6l-5.2,12.2L102,20c-0.7-0.2-2.3-0.5-3.4-0.5c-3.6,0-5.6,1.3-7.7,3.6L81,33.9l8,12.5c1.5,2.3,3.4,3.4,6.6,3.4
	c2.1,0,3.8-0.5,4.6-0.8l-9.6-14.4l6.8-7.2l11.1,17.5L101.6,59.2z M80.6,45.7c0,2.6-1,4.2-6.2,4.2c-0.7,0-1.3,0-1.8-0.1V14.8
	c0-2.7,0.9-5.4,6.1-5.4c0.7,0,1.3,0.1,1.9,0.2V45.7z M70,40.4c0,4.9-3.2,8.5-9.7,9.2c-4.7,0.5-11.6-0.1-14.8-0.5
	c-0.1-0.5-0.2-1.2-0.2-1.7c0-4.3,2.3-5.3,4.5-5.3c2.3,0,5.8,0.4,8.5,0.4c2.9,0,3.8-1,3.8-1.9c0-1.2-1.2-1.7-3.4-2.2l-6.2-1.2
	c-5.1-1-7.9-4.5-7.9-8.3c0-4.6,3.2-8.4,9.6-9.1c4.8-0.5,10.7,0.1,13.9,0.5c0.1,0.6,0.2,1.1,0.2,1.7c0,4.3-2.3,5.2-4.4,5.2
	c-1.7,0-4.3-0.3-7.2-0.3c-3,0-4.3,0.8-4.3,1.8c0,1.1,1.2,1.5,3.1,1.8l5.9,1.1C67.4,32.7,70,36.2,70,40.4"/>
<rect x="0" y="124.2" fill="#FFFFFF" width="171.7" height="47.5"/>
<rect x="0" y="68" fill="#EA021A" width="171.7" height="56.2"/>
<path fill="#FFFFFF" d="M19,105.6c-0.2-2,0.4-3,1.4-3c1.1,0,3.9,1.3,7.8,1.3c4.1,0,5.7-1.5,5.7-3.4c0-1.3-0.6-2.5-4.4-3.5l-4.2-1.2
	c-4.5-1.2-6.3-3.5-6.3-6.3c0-3.4,2.8-6.6,9.1-6.6c2.9,0,6.4,0.7,8.5,1.5c0.2,1.9-0.4,2.9-1.3,2.9c-1,0-3.6-1.2-7.2-1.2
	c-3.8,0-5.2,1.4-5.2,3.2c0,1.2,0.5,2.3,4,3.2l4.3,1.2c4.8,1.3,6.7,3.6,6.7,6.6c0,3.7-2.9,7-9.7,7C25,107.2,21.2,106.5,19,105.6"/>
<path fill="#FFFFFF" d="M65.6,94.9c0,7.6-5.4,12.2-11.4,12.2c-3.6,0-6.5-1.7-8.3-4.1v10.3c0,0.9-0.5,1.5-2,1.5
	c-0.7,0-1.4-0.1-1.8-0.2V83.3c0.3-0.1,1.1-0.2,1.8-0.2c1.5,0,2,0.6,2,1.5v2.4c1.7-2.5,4.6-4.1,8.3-4.1
	C60.2,82.7,65.6,87.3,65.6,94.9 M61.7,94.9c0-5.2-3.5-8.8-8.2-8.8c-3.2,0-6.2,1.9-7.6,4.6v8.5c1.3,2.7,4.3,4.6,7.6,4.6
	C58.2,103.8,61.7,100.2,61.7,94.9"/>
<path fill="#FFFFFF" d="M69.3,94.9c0-7,5.2-12.2,12.1-12.2s12.1,5.2,12.1,12.2c0,7-5.2,12.2-12.1,12.2S69.3,101.9,69.3,94.9
	 M89.6,94.9c0-5.4-3.7-8.8-8.2-8.8s-8.2,3.4-8.2,8.8c0,5.5,3.7,8.9,8.2,8.9S89.6,100.4,89.6,94.9"/>
<path fill="#FFFFFF" d="M112.4,84.8c0,1.4-0.6,1.8-2,1.8c-2.7,0-6.5,0.9-8.5,5.2v13.6c0,0.9-0.5,1.5-2,1.5c-0.7,0-1.4-0.1-1.8-0.2
	V83.3c0.3-0.1,1.1-0.2,1.8-0.2c1.5,0,2,0.6,2,1.5v2.9c2.2-3.1,5.9-4.8,10.3-4.1C112.3,83.5,112.4,84.2,112.4,84.8"/>
<path fill="#FFFFFF" d="M134.3,105.6c-0.2-2,0.4-3,1.4-3c1.1,0,3.9,1.3,7.8,1.3c4.1,0,5.7-1.5,5.7-3.4c0-1.3-0.6-2.5-4.4-3.5
	l-4.2-1.2c-4.5-1.2-6.3-3.5-6.3-6.3c0-3.4,2.8-6.6,9.1-6.6c2.9,0,6.4,0.7,8.5,1.5c0.2,1.9-0.4,2.9-1.3,2.9c-1,0-3.6-1.2-7.2-1.2
	c-3.8,0-5.2,1.4-5.2,3.2c0,1.2,0.5,2.3,4,3.2l4.3,1.2c4.8,1.3,6.7,3.6,6.7,6.6c0,3.7-2.9,7-9.7,7
	C140.3,107.2,136.6,106.5,134.3,105.6"/>
<path fill="#FFFFFF" d="M130.5,105.6c-2,1-4.4,1.6-6.8,1.6c-4.6,0-7.4-2.7-7.4-7.2v-21c0-0.9,0.5-1.5,2-1.5c0.7,0,1.4,0.1,1.8,0.3
	v5.6h9.4c0,0.3,0.1,0.9,0.1,1.5c0,1.4-0.6,1.8-1.4,1.8H120v13c0,2.9,1.4,4.1,4,4.1c2.4,0,3.8-0.9,5-0.9
	C130.1,102.8,130.7,103.7,130.5,105.6"/>
<path fill="#002672" d="M127.8,147.4v10.4c-0.3,0.1-0.8,0.1-1.2,0.1c-1,0-1.4-0.3-1.4-1v-1.2h0c-1.2,1.3-3.1,2.4-5.7,2.4
	c-3.6,0-5.6-2.4-5.6-5c0-3.9,4.2-5.7,11.3-5.2v-0.4c0-2.6-0.8-4-4-4c-1.7,0-3.1,0.3-4,0.6c-0.5,0.1-0.9,0.2-1.1,0.2
	c-0.7,0-1.2-0.7-1-2.1c1.5-0.6,3.9-1.2,6.2-1.2C126.1,141.2,127.8,143.6,127.8,147.4 M125.2,153V150c-4.6-0.2-8.7,0.3-8.7,3.2
	c0,1.4,1.2,2.7,3.3,2.7C122,155.9,123.9,154.7,125.2,153"/>
<path fill="#002672" d="M42.4,136.4c0,1.1-0.4,1.5-1,1.5c-0.5,0-1.7-0.5-3.2-0.5c-1.7,0-2.7,0.8-2.7,2.9v1.5H41
	c0,0.2,0.1,0.7,0.1,1.2c0,1-0.4,1.3-1,1.3h-4.6v12.6c0,0.7-0.3,1.1-1.5,1.1c-0.5,0-1-0.1-1.3-0.1v-13.5h-2.5
	c-0.1-0.2-0.1-0.7-0.1-1.2c0-1,0.4-1.3,1-1.3h1.5v-1.3c0-3.8,2.3-5.6,5.4-5.6c1.4,0,3.3,0.4,4.3,0.8
	C42.4,135.9,42.4,136.2,42.4,136.4"/>
<path fill="#002672" d="M61.7,149.6c0-4.8,3.6-8.5,8.4-8.5c4.8,0,8.4,3.6,8.4,8.5c0,4.8-3.6,8.5-8.4,8.5
	C65.2,158.1,61.7,154.4,61.7,149.6 M75.6,149.6c0-3.7-2.5-6-5.6-6c-3,0-5.6,2.3-5.6,6c0,3.7,2.5,6,5.6,6
	C73.1,155.6,75.6,153.3,75.6,149.6"/>
<path fill="#002672" d="M111.3,149.6c0,5.3-3.8,8.5-7.9,8.5c-2.5,0-4.5-1.2-5.7-2.8v1.3c0,0.9-0.4,1.3-1.5,1.3c-0.5,0-1-0.1-1.3-0.2
	v-21.1c0-0.6,0.4-1.1,1.5-1.1c0.5,0,1,0.1,1.2,0.1v8.3c1.2-1.7,3.2-2.8,5.7-2.8C107.5,141.1,111.3,144.3,111.3,149.6 M108.4,149.6
	c0-3.6-2.4-6-5.6-6c-2.2,0-4.3,1.3-5.2,3.2v5.7c0.9,1.9,2.9,3.2,5.2,3.2C106,155.6,108.4,153.2,108.4,149.6"/>
<path fill="#002672" d="M132.1,157.7v-21.1c0-0.6,0.4-1.1,1.5-1.1c0.5,0,1,0.1,1.3,0.2v21.1c0,0.7-0.3,1.1-1.5,1.1
	C132.9,157.9,132.4,157.8,132.1,157.7"/>
<path fill="#002672" d="M139.2,157.7v-21.1c0-0.6,0.4-1.1,1.5-1.1c0.5,0,1,0.1,1.3,0.2v21.1c0,0.7-0.3,1.1-1.5,1.1
	C140,157.9,139.5,157.8,139.2,157.7"/>
<path fill="#002672" d="M91.9,157c-1.4,0.7-3.1,1.1-4.7,1.1c-3.2,0-5.2-1.9-5.2-5.1v-14.6c0-0.6,0.4-1.1,1.5-1.1
	c0.5,0,1,0.1,1.3,0.2v3.8h6.5c0,0.2,0.1,0.7,0.1,1.1c0,1-0.4,1.3-1,1.3h-5.6v8.9c0,1.9,0.9,2.8,2.8,2.8c1.6,0,2.6-0.7,3.4-0.7
	C91.7,154.9,92.1,155.6,91.9,157"/>
<path fill="#002672" d="M42,149.6c0-4.8,3.6-8.5,8.4-8.5c4.8,0,8.4,3.6,8.4,8.5c0,4.8-3.6,8.5-8.4,8.5C45.6,158.1,42,154.4,42,149.6
	 M56,149.6c0-3.7-2.5-6-5.6-6c-3,0-5.6,2.3-5.6,6c0,3.7,2.5,6,5.6,6C53.5,155.6,56,153.3,56,149.6"/>
</svg>
