<?xml version="1.0" encoding="utf-8"?>
<!-- Generator: Adobe Illustrator 18.1.1, SVG Export Plug-In . SVG Version: 6.00 Build 0)  -->
<svg version="1.1" id="Layer_1" xmlns="http://www.w3.org/2000/svg" xmlns:xlink="http://www.w3.org/1999/xlink" x="0px" y="0px"
	 viewBox="0 0 171.9 171.6" enable-background="new 0 0 171.9 171.6" xml:space="preserve">
<rect x="0" fill="#002672" width="171.7" height="68"/>
<path fill="#FFFFFF" d="M101.6,59.2c0.7,0.3,2.1,0.8,3.8,0.8c3,0.1,4.6-1.1,5.8-3.8l16-35.7c-0.7-0.4-2.1-0.7-3.3-0.8
	c-2.1,0-4.8,0.4-6.6,4.6l-5.2,12.2L102,20c-0.7-0.2-2.3-0.5-3.4-0.5c-3.6,0-5.6,1.3-7.7,3.6L81,33.9l8,12.5c1.5,2.3,3.4,3.4,6.6,3.4
	c2.1,0,3.8-0.5,4.6-0.8l-9.6-14.4l6.8-7.2l11.1,17.5L101.6,59.2z M80.6,45.7c0,2.6-1,4.2-6.2,4.2c-0.7,0-1.3,0-1.8-0.1V14.8
	c0-2.7,0.9-5.4,6.1-5.4c0.7,0,1.3,0.1,1.9,0.2V45.7z M70,40.4c0,4.9-3.2,8.5-9.7,9.2c-4.7,0.5-11.6-0.1-14.8-0.5
	c-0.1-0.5-0.2-1.2-0.2-1.7c0-4.3,2.3-5.3,4.5-5.3c2.3,0,5.8,0.4,8.5,0.4c2.9,0,3.8-1,3.8-1.9c0-1.2-1.2-1.7-3.4-2.2l-6.2-1.2
	c-5.1-1-7.9-4.5-7.9-8.3c0-4.6,3.2-8.4,9.6-9.1c4.8-0.5,10.7,0.1,13.9,0.5c0.1,0.6,0.2,1.1,0.2,1.7c0,4.3-2.3,5.2-4.4,5.2
	c-1.7,0-4.3-0.3-7.2-0.3c-3,0-4.3,0.8-4.3,1.8c0,1.1,1.2,1.5,3.1,1.8l5.9,1.1C67.4,32.7,70,36.2,70,40.4"/>
<rect x="0.2" y="124.2" fill="#FFFFFF" width="171.7" height="47.5"/>
<rect x="0" y="68" fill="#EA021A" width="171.7" height="56.2"/>
<path fill="#FFFFFF" d="M19,105.6c-0.2-2,0.4-3,1.4-3c1.1,0,3.9,1.3,7.8,1.3c4.1,0,5.7-1.5,5.7-3.4c0-1.3-0.6-2.5-4.4-3.5l-4.2-1.2
	c-4.5-1.2-6.3-3.5-6.3-6.3c0-3.4,2.8-6.6,9.1-6.6c2.9,0,6.4,0.7,8.5,1.5c0.2,1.9-0.4,2.9-1.3,2.9c-1,0-3.6-1.2-7.2-1.2
	c-3.8,0-5.2,1.4-5.2,3.2c0,1.2,0.5,2.3,4,3.2l4.3,1.2c4.8,1.3,6.7,3.6,6.7,6.6c0,3.7-2.9,7-9.7,7C25,107.2,21.2,106.5,19,105.6"/>
<path fill="#FFFFFF" d="M65.6,94.9c0,7.6-5.4,12.2-11.4,12.2c-3.6,0-6.5-1.7-8.3-4.1v10.3c0,0.9-0.5,1.5-2,1.5
	c-0.7,0-1.4-0.1-1.8-0.2V83.3c0.3-0.1,1.1-0.2,1.8-0.2c1.5,0,2,0.6,2,1.5v2.4c1.7-2.5,4.6-4.1,8.3-4.1
	C60.2,82.7,65.6,87.3,65.6,94.9 M61.7,94.9c0-5.2-3.5-8.8-8.2-8.8c-3.2,0-6.2,1.9-7.6,4.6v8.5c1.3,2.7,4.3,4.6,7.6,4.6
	C58.2,103.8,61.7,100.2,61.7,94.9"/>
<path fill="#FFFFFF" d="M69.3,94.9c0-7,5.2-12.2,12.1-12.2c6.9,0,12.1,5.2,12.1,12.2c0,7-5.2,12.2-12.1,12.2
	C74.5,107.1,69.3,101.9,69.3,94.9 M89.6,94.9c0-5.4-3.7-8.8-8.2-8.8s-8.2,3.4-8.2,8.8c0,5.5,3.7,8.9,8.2,8.9S89.6,100.4,89.6,94.9"
	/>
<path fill="#FFFFFF" d="M112.4,84.8c0,1.4-0.6,1.8-2,1.8c-2.7,0-6.5,0.9-8.5,5.2v13.6c0,0.9-0.5,1.5-2,1.5c-0.7,0-1.4-0.1-1.8-0.2
	V83.3c0.3-0.1,1.1-0.2,1.8-0.2c1.5,0,2,0.6,2,1.5v2.9c2.2-3.1,5.9-4.8,10.3-4.1C112.3,83.5,112.4,84.2,112.4,84.8"/>
<path fill="#FFFFFF" d="M134.3,105.6c-0.2-2,0.4-3,1.4-3c1.1,0,3.9,1.3,7.8,1.3c4.1,0,5.7-1.5,5.7-3.4c0-1.3-0.6-2.5-4.4-3.5
	l-4.2-1.2c-4.5-1.2-6.3-3.5-6.3-6.3c0-3.4,2.8-6.6,9.1-6.6c2.9,0,6.4,0.7,8.5,1.5c0.2,1.9-0.4,2.9-1.3,2.9c-1,0-3.6-1.2-7.2-1.2
	c-3.8,0-5.2,1.4-5.2,3.2c0,1.2,0.5,2.3,4,3.2l4.3,1.2c4.8,1.3,6.7,3.6,6.7,6.6c0,3.7-2.9,7-9.7,7
	C140.3,107.2,136.6,106.5,134.3,105.6"/>
<path fill="#FFFFFF" d="M130.5,105.6c-2,1-4.4,1.6-6.8,1.6c-4.6,0-7.4-2.7-7.4-7.2v-21c0-0.9,0.5-1.5,2-1.5c0.7,0,1.4,0.1,1.8,0.3
	v5.6h9.4c0,0.3,0.1,0.9,0.1,1.5c0,1.4-0.6,1.8-1.4,1.8H120v13c0,2.9,1.4,4.1,4,4.1c2.4,0,3.8-0.9,5-0.9
	C130.1,102.8,130.7,103.7,130.5,105.6"/>
<path fill="#002672" d="M74.6,139.4v16c0,4.5-3.3,7.3-8.4,7.3c-2.4,0-4.9-0.7-6.8-1.6c-0.1-1.3,0.3-2.2,1.2-2.2
	c0.4,0,0.7,0.1,1.4,0.4c0.9,0.4,2.3,0.9,4.2,0.9c3.4,0,5.5-1.6,5.5-4.8v-1.9c-1,1.3-3,2.6-5.8,2.6c-4.1,0-7.9-3.3-7.9-8.5
	c0-5.3,3.8-8.5,7.9-8.5c2.7,0,4.8,1.3,5.8,2.7v-1.3c0-0.7,0.4-1.1,1.5-1.1C73.7,139.2,74.3,139.3,74.6,139.4 M71.7,144.8
	c-0.9-1.9-2.9-3.2-5.2-3.2c-3.1,0-5.6,2.3-5.6,6.1c0,3.8,2.5,6,5.6,6c2.3,0,4.3-1.3,5.2-3.2V144.8z"/>
<path fill="#002672" d="M77.2,147.8c0-5,3.7-8.8,8.7-8.8c5,0,8.7,3.7,8.7,8.8c0,5-3.7,8.8-8.7,8.8C80.9,156.6,77.2,152.8,77.2,147.8
	 M91.7,147.8c0-3.9-2.6-6.2-5.8-6.2c-3.1,0-5.8,2.4-5.8,6.2c0,3.9,2.6,6.3,5.8,6.3C89.1,154,91.7,151.6,91.7,147.8"/>
<path fill="#002672" d="M97.7,156.2v-21.7c0-0.7,0.4-1.1,1.6-1.1c0.5,0,1,0.1,1.3,0.2v21.7c0,0.7-0.4,1.1-1.5,1.1
	C98.6,156.4,98,156.3,97.7,156.2"/>
<path fill="#002672" d="M116.1,134.7c0,1.1-0.5,1.6-1,1.6c-0.5,0-1.7-0.5-3.3-0.5c-1.8,0-2.8,0.8-2.8,3v1.7h5.8
	c0,0.2,0.1,0.7,0.1,1.2c0,1-0.4,1.4-1.1,1.4h-4.8v12.3c0,0.7-0.4,1.1-1.6,1.1c-0.5,0-1.1-0.1-1.3-0.1V143h-2.5
	c-0.1-0.2-0.1-0.7-0.1-1.2c0-1,0.4-1.4,1.1-1.4h1.6v-1.5c0-4,2.4-5.8,5.6-5.8c1.5,0,3.5,0.4,4.4,0.8
	C116.1,134.2,116.1,134.5,116.1,134.7"/>
</svg>
