<?xml version="1.0" encoding="utf-8"?>
<!-- Generator: Adobe Illustrator 19.1.0, SVG Export Plug-In . SVG Version: 6.00 Build 0)  -->
<svg version="1.1" id="Layer_1" xmlns="http://www.w3.org/2000/svg" xmlns:xlink="http://www.w3.org/1999/xlink" x="0px" y="0px"
	 viewBox="0 0 192 192" style="enable-background:new 0 0 192 192;" xml:space="preserve">
<style type="text/css">
	.st0{fill:#FFFFFF;}
	.st1{fill:#002672;}
	.st2{fill:#EA021A;}
</style>
<rect y="138.9" class="st0" width="192" height="53.1"/>
<rect y="0" class="st1" width="192" height="76"/>
<path class="st0" d="M113.6,66.2c0.8,0.3,2.3,0.9,4.2,0.9c3.4,0.1,5.1-1.2,6.5-4.2l17.9-39.9c-0.8-0.4-2.3-0.8-3.7-0.9
	c-2.3,0-5.4,0.4-7.4,5.1l-5.8,13.6l-11.3-18.5c-0.8-0.2-2.6-0.6-3.8-0.6c-4,0-6.3,1.5-8.6,4L90.6,37.9l8.9,14
	c1.7,2.6,3.8,3.8,7.4,3.8c2.3,0,4.2-0.6,5.1-0.9l-10.7-16.1l7.6-8.1l12.4,19.6L113.6,66.2z M90.1,51.1c0,2.9-1.1,4.7-6.9,4.7
	c-0.8,0-1.5,0-2-0.1V16.5c0-3,1-6,6.8-6c0.8,0,1.5,0.1,2.1,0.2V51.1z M78.3,45.2c0,5.5-3.6,9.5-10.8,10.3c-5.3,0.6-13-0.1-16.5-0.6
	c-0.1-0.6-0.2-1.3-0.2-1.9c0-4.8,2.6-5.9,5-5.9c2.6,0,6.5,0.4,9.5,0.4c3.2,0,4.2-1.1,4.2-2.1c0-1.3-1.3-1.9-3.8-2.5l-6.9-1.3
	c-5.7-1.1-8.8-5-8.8-9.3c0-5.1,3.6-9.4,10.7-10.2c5.4-0.6,12,0.1,15.5,0.6c0.1,0.7,0.2,1.2,0.2,1.9c0,4.8-2.6,5.8-4.9,5.8
	c-1.9,0-4.8-0.3-8.1-0.3c-3.4,0-4.8,0.9-4.8,2c0,1.2,1.3,1.7,3.5,2l6.6,1.2C75.4,36.6,78.3,40.5,78.3,45.2"/>
<rect y="76" class="st2" width="192" height="62.8"/>
<path class="st0" d="M21.2,118.1c-0.2-2.2,0.4-3.4,1.6-3.4c1.2,0,4.4,1.5,8.7,1.5c4.6,0,6.4-1.7,6.4-3.8c0-1.5-0.7-2.8-4.9-3.9
	l-4.7-1.3c-5-1.3-7-3.9-7-7c0-3.8,3.1-7.4,10.2-7.4c3.2,0,7.2,0.8,9.5,1.7c0.2,2.1-0.4,3.2-1.5,3.2c-1.1,0-4-1.3-8.1-1.3
	c-4.2,0-5.8,1.6-5.8,3.6c0,1.3,0.6,2.6,4.5,3.6l4.8,1.3c5.4,1.5,7.5,4,7.5,7.4c0,4.1-3.2,7.8-10.8,7.8
	C28,119.9,23.7,119.1,21.2,118.1"/>
<path class="st0" d="M73.4,106.1c0,8.5-6,13.6-12.7,13.6c-4,0-7.3-1.9-9.3-4.6v11.5c0,1-0.6,1.7-2.2,1.7c-0.8,0-1.6-0.1-2-0.2v-35
	c0.3-0.1,1.2-0.2,2-0.2c1.7,0,2.2,0.7,2.2,1.7v2.7c1.9-2.8,5.1-4.6,9.3-4.6C67.3,92.5,73.4,97.6,73.4,106.1 M69,106.1
	c0-5.8-3.9-9.8-9.2-9.8c-3.6,0-6.9,2.1-8.5,5.1v9.5c1.5,3,4.8,5.1,8.5,5.1C65.1,116.1,69,112,69,106.1"/>
<path class="st0" d="M77.5,106.1c0-7.8,5.8-13.6,13.5-13.6s13.5,5.8,13.5,13.6s-5.8,13.6-13.5,13.6S77.5,113.9,77.5,106.1
	 M100.2,106.1c0-6-4.1-9.8-9.2-9.8c-5,0-9.2,3.8-9.2,9.8c0,6.2,4.1,10,9.2,10C96.1,116.1,100.2,112.3,100.2,106.1"/>
<path class="st0" d="M125.7,94.8c0,1.6-0.7,2-2.2,2c-3,0-7.3,1-9.5,5.8v15.2c0,1-0.6,1.7-2.2,1.7c-0.8,0-1.6-0.1-2-0.2V93.1
	c0.3-0.1,1.2-0.2,2-0.2c1.7,0,2.2,0.7,2.2,1.7v3.2c2.5-3.5,6.6-5.4,11.5-4.6C125.6,93.4,125.7,94.2,125.7,94.8"/>
<path class="st0" d="M150.2,118.1c-0.2-2.2,0.4-3.4,1.6-3.4c1.2,0,4.4,1.5,8.7,1.5c4.6,0,6.4-1.7,6.4-3.8c0-1.5-0.7-2.8-4.9-3.9
	l-4.7-1.3c-5-1.3-7-3.9-7-7c0-3.8,3.1-7.4,10.2-7.4c3.2,0,7.2,0.8,9.5,1.7c0.2,2.1-0.4,3.2-1.5,3.2c-1.1,0-4-1.3-8.1-1.3
	c-4.2,0-5.8,1.6-5.8,3.6c0,1.3,0.6,2.6,4.5,3.6l4.8,1.3c5.4,1.5,7.5,4,7.5,7.4c0,4.1-3.2,7.8-10.8,7.8
	C156.9,119.9,152.8,119.1,150.2,118.1"/>
<path class="st0" d="M145.9,118.1c-2.2,1.1-4.9,1.8-7.6,1.8c-5.1,0-8.3-3-8.3-8.1V88.3c0-1,0.6-1.7,2.2-1.7c0.8,0,1.6,0.1,2,0.3v6.3
	h10.5c0,0.3,0.1,1,0.1,1.7c0,1.6-0.7,2-1.6,2h-9.2v14.5c0,3.2,1.6,4.6,4.5,4.6c2.7,0,4.2-1,5.6-1C145.5,115,146.2,116,145.9,118.1"
	/>
<g>
	<path class="st1" d="M14.6,176.4v-16.8c0.3-0.1,0.8-0.1,1.3-0.1c1.1,0,1.5,0.4,1.5,1.2v1c1.1-1.4,2.7-2.4,4.8-2.4
		c2.3,0,4,1.1,4.9,2.9c1.1-1.4,2.8-2.9,5.3-2.9c3.8,0,5.7,2.7,5.7,6.1v10.1c0,0.7-0.4,1.1-1.5,1.1c-0.5,0-1.1-0.1-1.3-0.1v-10.7
		c0-2.5-1.2-3.9-3.4-3.9c-1.9,0-3.4,1.3-4.1,2.6v11c0,0.7-0.4,1.1-1.5,1.1c-0.5,0-1.1-0.1-1.3-0.1v-10.7c0-2.5-1.4-3.9-3.4-3.9
		c-1.9,0-3.5,1.3-4.1,2.6v11c0,0.7-0.4,1.1-1.5,1.1C15.4,176.5,14.9,176.4,14.6,176.4z"/>
	<path class="st1" d="M56,165.6v10.7c-0.3,0.1-0.8,0.1-1.2,0.1c-1,0-1.4-0.4-1.4-1v-1.3h0c-1.3,1.3-3.2,2.5-5.9,2.5
		c-3.7,0-5.8-2.5-5.8-5.2c0-4,4.3-5.9,11.7-5.4v-0.4c0-2.6-0.8-4.1-4.1-4.1c-1.7,0-3.2,0.4-4.2,0.6c-0.5,0.1-0.9,0.2-1.2,0.2
		c-0.7,0-1.2-0.7-1-2.2c1.6-0.6,4.1-1.2,6.4-1.2C54.2,159.2,56,161.7,56,165.6z M53.3,171.5v-3.2c-4.8-0.2-9,0.3-9,3.3
		c0,1.5,1.3,2.8,3.4,2.8C49.9,174.4,52,173.2,53.3,171.5z"/>
	<path class="st1" d="M67.6,176.4v-16.8c0.3-0.1,0.8-0.1,1.4-0.1c1.1,0,1.4,0.5,1.4,1.1v1.2c1.3-1.4,3.2-2.6,5.7-2.6
		c3.5,0,6.3,2.2,6.3,7.2v9c0,0.7-0.4,1.1-1.6,1.1c-0.5,0-1.1-0.1-1.3-0.1v-9.6c0-3.4-1.7-5-4.2-5c-2,0-4.1,1.3-4.9,2.9v10.7
		c0,0.7-0.4,1.1-1.5,1.1C68.4,176.5,67.9,176.4,67.6,176.4z"/>
	<g>
		<path class="st1" d="M108.8,169.1H95.7c0.5,3.2,2.7,5.1,6,5.1c1.4,0,2.5-0.4,3.6-0.7c0.7-0.2,1.1-0.4,1.4-0.4
			c0.7,0,1.3,0.7,1.1,2.2c-1.5,0.7-3.8,1.4-6.2,1.4c-5.2,0-8.8-3.6-8.8-8.9c0-5,3.6-8.7,8.4-8.7c5.2,0,7.8,4.1,7.8,8.1
			C108.9,167.8,108.9,168.4,108.8,169.1 M95.7,166.7h10.4c-0.1-2.9-1.9-5.1-4.9-5.1C98.5,161.6,96.2,163.4,95.7,166.7"/>
		<path class="st1" d="M117.1,176.3l-7-16.5c0.4-0.2,1.1-0.4,1.9-0.4c0.8,0,1.2,0.3,1.5,1l2.9,7.1c0.8,2,1.7,4.1,2.4,6.1h0
			c0.7-2,1.5-4.1,2.4-6.1l2.9-7.1c0.3-0.7,0.7-1,1.5-1c0.7,0,1.4,0.2,1.9,0.4l-6.7,15.5c-0.4,0.9-0.8,1.2-2,1.2
			C118.1,176.5,117.6,176.4,117.1,176.3"/>
		<path class="st1" d="M144.8,169.1h-13.1c0.5,3.2,2.7,5.1,6,5.1c1.4,0,2.5-0.4,3.6-0.7c0.7-0.2,1.1-0.4,1.4-0.4
			c0.7,0,1.3,0.7,1.1,2.2c-1.5,0.7-3.8,1.4-6.2,1.4c-5.2,0-8.8-3.6-8.8-8.9c0-5,3.6-8.7,8.4-8.7c5.2,0,7.8,4.1,7.8,8.1
			C144.9,167.8,144.9,168.4,144.8,169.1 M131.7,166.7h10.4c-0.1-2.9-1.9-5.1-4.9-5.1C134.5,161.6,132.2,163.4,131.7,166.7"/>
		<path class="st1" d="M148.2,176.3v-16.8c0.3-0.1,0.8-0.1,1.4-0.1c1.1,0,1.4,0.5,1.4,1.1v1.2c1.3-1.4,3.2-2.6,5.7-2.6
			c3.5,0,6.3,2.2,6.3,7.2v9c0,0.7-0.4,1.1-1.5,1.1c-0.5,0-1.1-0.1-1.3-0.1v-9.6c0-3.4-1.7-5-4.2-5c-2,0-4.1,1.3-4.9,2.9v10.7
			c0,0.7-0.4,1.1-1.5,1.1C149.1,176.5,148.5,176.4,148.2,176.3"/>
		<path class="st1" d="M177.4,175.6c-1.5,0.7-3.2,1.2-4.9,1.2c-3.3,0-5.4-2-5.4-5.3v-15c0-0.7,0.4-1.1,1.6-1.1
			c0.5,0,1.1,0.1,1.3,0.2v4h6.7c0,0.2,0.1,0.7,0.1,1.2c0,1-0.4,1.4-1.1,1.4h-5.7v9.2c0,2,1,2.9,2.9,2.9c1.7,0,2.7-0.7,3.5-0.7
			S177.5,174.2,177.4,175.6"/>
	</g>
	<path class="st1" d="M59.9,155.4c0-1.1,0.8-1.8,1.9-1.8c1,0,1.8,0.8,1.8,1.8c0,1-0.8,1.8-1.8,1.8C60.7,157.3,59.9,156.4,59.9,155.4
		 M60.3,176.4v-15.9c0-0.7,0.4-1.1,1.6-1.1c0.5,0,1.1,0.1,1.3,0.1v15.9c0,0.7-0.4,1.1-1.6,1.1C61.1,176.5,60.6,176.4,60.3,176.4"/>
</g>
</svg>
