<?xml version="1.0" encoding="utf-8"?>
<!-- Generator: Adobe Illustrator 18.1.1, SVG Export Plug-In . SVG Version: 6.00 Build 0)  -->
<svg version="1.1" id="Layer_1" xmlns="http://www.w3.org/2000/svg" xmlns:xlink="http://www.w3.org/1999/xlink" x="0px" y="0px"
	 viewBox="0 0 171.7 171.6" enable-background="new 0 0 171.7 171.6" xml:space="preserve">
<rect x="0" fill="#002672" width="171.7" height="68"/>
<path fill="#FFFFFF" d="M101.6,59.2c0.7,0.3,2.1,0.8,3.8,0.8c3,0.1,4.6-1.1,5.8-3.8l16-35.7c-0.7-0.4-2.1-0.7-3.3-0.8
	c-2.1,0-4.8,0.4-6.6,4.6l-5.2,12.2L102,20c-0.7-0.2-2.3-0.5-3.4-0.5c-3.6,0-5.6,1.3-7.7,3.6L81,33.9l8,12.5c1.5,2.3,3.4,3.4,6.6,3.4
	c2.1,0,3.8-0.5,4.6-0.8l-9.6-14.4l6.8-7.2l11.1,17.5L101.6,59.2z M80.6,45.7c0,2.6-1,4.2-6.2,4.2c-0.7,0-1.3,0-1.8-0.1V14.8
	c0-2.7,0.9-5.4,6.1-5.4c0.7,0,1.3,0.1,1.9,0.2V45.7z M70,40.4c0,4.9-3.2,8.5-9.7,9.2c-4.7,0.5-11.6-0.1-14.8-0.5
	c-0.1-0.5-0.2-1.2-0.2-1.7c0-4.3,2.3-5.3,4.5-5.3c2.3,0,5.8,0.4,8.5,0.4c2.9,0,3.8-1,3.8-1.9c0-1.2-1.2-1.7-3.4-2.2l-6.2-1.2
	c-5.1-1-7.9-4.5-7.9-8.3c0-4.6,3.2-8.4,9.6-9.1c4.8-0.5,10.7,0.1,13.9,0.5c0.1,0.6,0.2,1.1,0.2,1.7c0,4.3-2.3,5.2-4.4,5.2
	c-1.7,0-4.3-0.3-7.2-0.3c-3,0-4.3,0.8-4.3,1.8c0,1.1,1.2,1.5,3.1,1.8l5.9,1.1C67.4,32.7,70,36.2,70,40.4"/>
<rect x="0" y="124.2" fill="#FFFFFF" width="171.7" height="47.5"/>
<rect x="0" y="68" fill="#EA021A" width="171.7" height="56.2"/>
<path fill="#FFFFFF" d="M19,105.6c-0.2-2,0.4-3,1.4-3c1.1,0,3.9,1.3,7.8,1.3c4.1,0,5.7-1.5,5.7-3.4c0-1.3-0.6-2.5-4.4-3.5l-4.2-1.2
	c-4.5-1.2-6.3-3.5-6.3-6.3c0-3.4,2.8-6.6,9.1-6.6c2.9,0,6.4,0.7,8.5,1.5c0.2,1.9-0.4,2.9-1.3,2.9c-1,0-3.6-1.2-7.2-1.2
	c-3.8,0-5.2,1.4-5.2,3.2c0,1.2,0.5,2.3,4,3.2l4.3,1.2c4.8,1.3,6.7,3.6,6.7,6.6c0,3.7-2.9,7-9.7,7C25,107.2,21.2,106.5,19,105.6"/>
<path fill="#FFFFFF" d="M65.6,94.9c0,7.6-5.4,12.2-11.4,12.2c-3.6,0-6.5-1.7-8.3-4.1v10.3c0,0.9-0.5,1.5-2,1.5
	c-0.7,0-1.4-0.1-1.8-0.2V83.3c0.3-0.1,1.1-0.2,1.8-0.2c1.5,0,2,0.6,2,1.5v2.4c1.7-2.5,4.6-4.1,8.3-4.1
	C60.2,82.7,65.6,87.3,65.6,94.9 M61.7,94.9c0-5.2-3.5-8.8-8.2-8.8c-3.2,0-6.2,1.9-7.6,4.6v8.5c1.3,2.7,4.3,4.6,7.6,4.6
	C58.2,103.8,61.7,100.2,61.7,94.9"/>
<path fill="#FFFFFF" d="M69.3,94.9c0-7,5.2-12.2,12.1-12.2c6.9,0,12.1,5.2,12.1,12.2c0,7-5.2,12.2-12.1,12.2
	C74.5,107.1,69.3,101.9,69.3,94.9 M89.6,94.9c0-5.4-3.7-8.8-8.2-8.8s-8.2,3.4-8.2,8.8c0,5.5,3.7,8.9,8.2,8.9S89.6,100.4,89.6,94.9"
	/>
<path fill="#FFFFFF" d="M112.4,84.8c0,1.4-0.6,1.8-2,1.8c-2.7,0-6.5,0.9-8.5,5.2v13.6c0,0.9-0.5,1.5-2,1.5c-0.7,0-1.4-0.1-1.8-0.2
	V83.3c0.3-0.1,1.1-0.2,1.8-0.2c1.5,0,2,0.6,2,1.5v2.9c2.2-3.1,5.9-4.8,10.3-4.1C112.3,83.5,112.4,84.2,112.4,84.8"/>
<path fill="#FFFFFF" d="M134.3,105.6c-0.2-2,0.4-3,1.4-3c1.1,0,3.9,1.3,7.8,1.3c4.1,0,5.7-1.5,5.7-3.4c0-1.3-0.6-2.5-4.4-3.5
	l-4.2-1.2c-4.5-1.2-6.3-3.5-6.3-6.3c0-3.4,2.8-6.6,9.1-6.6c2.9,0,6.4,0.7,8.5,1.5c0.2,1.9-0.4,2.9-1.3,2.9c-1,0-3.6-1.2-7.2-1.2
	c-3.8,0-5.2,1.4-5.2,3.2c0,1.2,0.5,2.3,4,3.2l4.3,1.2c4.8,1.3,6.7,3.6,6.7,6.6c0,3.7-2.9,7-9.7,7
	C140.3,107.2,136.6,106.5,134.3,105.6"/>
<path fill="#FFFFFF" d="M130.5,105.6c-2,1-4.4,1.6-6.8,1.6c-4.6,0-7.4-2.7-7.4-7.2v-21c0-0.9,0.5-1.5,2-1.5c0.7,0,1.4,0.1,1.8,0.3
	v5.6h9.4c0,0.3,0.1,0.9,0.1,1.5c0,1.4-0.6,1.8-1.4,1.8H120v13c0,2.9,1.4,4.1,4,4.1c2.4,0,3.8-0.9,5-0.9
	C130.1,102.8,130.7,103.7,130.5,105.6"/>
<path fill="#002672" d="M59.9,157.9v-17.2c0.3-0.1,0.9-0.1,1.4-0.1c1.2,0,1.5,0.4,1.5,1.2v1c1.2-1.4,2.8-2.4,4.9-2.4
	c2.3,0,4.1,1.1,5,3c1.1-1.5,2.8-3,5.4-3c3.9,0,5.8,2.8,5.8,6.3v10.3c0,0.7-0.4,1.1-1.5,1.1c-0.5,0-1.1-0.1-1.4-0.1V147
	c0-2.5-1.2-4-3.5-4c-1.9,0-3.5,1.3-4.2,2.7v11.2c0,0.7-0.4,1.1-1.5,1.1c-0.5,0-1.1-0.1-1.4-0.1V147c0-2.5-1.4-4-3.5-4
	c-1.9,0-3.5,1.3-4.2,2.7v11.2c0,0.7-0.4,1.1-1.6,1.1C60.8,158,60.2,158,59.9,157.9"/>
<path fill="#002672" d="M88.2,136c0-1.1,0.9-1.9,1.9-1.9s1.9,0.8,1.9,1.9c0,1-0.8,1.9-1.9,1.9S88.2,137,88.2,136 M88.6,157.9v-16.2
	c0-0.7,0.4-1.1,1.6-1.1c0.5,0,1.1,0.1,1.4,0.1v16.2c0,0.7-0.4,1.1-1.6,1.1C89.4,158,88.9,158,88.6,157.9"/>
<path fill="#002672" d="M111.2,138.2c-0.4,0.2-0.9,0.4-1.2,0.7c-0.1-0.1-0.1,0.1-0.2,0.1c-0.4,0.3-0.8,0.7-1.1,1
	c0.1,0,0.1,0.1,0,0.1l-0.2,0.1l0,0c-0.5,0.5-1.1,1.1-1.6,1.7c-0.1,0.1-0.1,0.3-0.2,0.4l0,0c-0.2,0.1-0.3,0.2-0.4,0.4
	c0,0,0-0.1,0-0.1l-0.1,0.1l0,0c0,0,0,0,0,0c0,0-0.1,0.1-0.1,0.1c0.1,0.2-0.2,0.2-0.2,0.3c0,0,0-0.1-0.1,0l0,0c0,0,0.1,0,0,0.1l0,0
	c0,0-0.1,0.1-0.1,0.1l0,0l-0.1,0.1c0,0.1,0,0,0,0c-0.2,0,0,0.2-0.1,0.2l-0.1-0.1c0,0-0.1,0,0,0.1l0.1,0.1c0,0-0.1,0-0.1-0.1
	c0,0-0.1,0,0,0.1c0,0,0,0.1,0.1,0c-0.4,0.2-0.4,0.6-0.8,0.8c-0.3,0.4-0.4,0.7-0.7,1.1l0,0c0.2-0.2,0.3-0.3,0.4-0.5
	c-0.2,0.4-0.6,0.8-0.8,1.2l0,0c0,0-0.1,0,0,0.1l0,0c0.1-0.1,0.2-0.2,0.3-0.3c-0.2,0.6-0.7,0.9-0.9,1.4c0,0.1,0,0.2,0.1,0.2
	c0,0,0,0,0,0l0.3,0.4c-0.1,0-0.1,0-0.1,0c0.1,0.1,0.1,0.2,0.2,0.3c0,0,0.1,0.1,0.1,0.1l0,0c0,0.1,0,0.1,0,0.2c0,0,0,0.1,0,0.1
	c0,0.1,0.1,0.2,0.2,0.3l0.1,0.4c0.1,0.1,0.1,0.2,0.2,0.3c0.2,0.3,0.4,0.5,0.6,0.7c0.2,0.3,0.5,0.9,0.6,1.2c0.3,0.7,0.8,1,1.1,1.7
	c0.2,0.4,0.4,0.7,0.6,1c0.1,0.1,0.2,0.2,0.3,0.3c0,0.1,0.1,0.1,0.1,0.1c0.1,0.2,0.4,0.4,0.3,0.6c0,0.1,0.2,0.3,0.3,0.6
	c0,0,0.1,0.1,0.1,0.1c0.1,0.1,0.1,0.3,0.1,0.3c0,0,0,0,0,0.1c0.1,0.1,0.3,0.5,0.4,0.7l0,0c0,0,0,0.1,0,0.1c0,0,0,0.1,0,0.1
	c0,0,0,0,0,0c0.1,0.2,0.1,0.5,0.1,0.7c0,0.2,0,0.3-0.1,0.5c0,0,0,0-0.1,0c-0.1,0.1,0,0.2-0.1,0.3l-0.1,0c0.1,0.2-0.1,0.1-0.2,0.1
	c-0.2-0.1-0.2,0.2-0.4,0.1c-0.2,0.2-0.5-0.2-0.7-0.1c0-0.3-0.4-0.4-0.5-0.7c-0.2-0.3-0.5-0.5-0.7-0.8c-0.2-0.3-0.3-0.7-0.5-1.1
	c-0.1-0.2,0,0.2-0.1,0l0,0.3l-0.1-0.2c0,0,0,0,0,0c-0.1-0.1-0.3-0.2-0.4-0.4c0,0,0-0.1,0-0.1c-0.3-0.4-0.5-0.7-0.7-1l0,0
	c0.1,0,0.2,0.2,0.3,0.3l0,0c-0.2-0.3-0.4-0.6-0.6-0.9c-0.6-0.5-0.8-1.2-1.1-1.8c-0.3-0.6-0.8-0.9-1.2-1.4c-0.1-0.2-0.3-0.4-0.4-0.5
	c0,0.1,0.1,0.2,0.1,0.3c0.1,0.1,0.3,0.3,0.3,0.5c-0.1-0.3-0.4-0.5-0.6-0.6l0,0l-0.1-0.2c-0.1,0.1-0.2,0.3-0.3,0.3
	c0.1,0.2-0.1,0.2-0.2,0.3c0,0.1-0.1,0.3-0.2,0.4c-0.1,0.1-0.2,0.2-0.2,0.3l0,0c0,0-0.1,0,0,0.1c0,0.2-0.2,0.4-0.3,0.5
	c-0.6,0.8-1,1.7-1.5,2.5c-0.4,0.6-0.8,1.1-1.4,1.5c-0.2,0.3-0.6,0.7-1,0.7l0,0c0,0.1-0.1,0-0.2,0c0-0.1-0.3,0-0.4-0.1
	c-0.2,0-0.3-0.3-0.5-0.3c0.2-0.2-0.1-0.4,0.1-0.5c0.1-0.1,0.2-0.3,0.3-0.3c0-0.1,0-0.3,0.1-0.4l0,0c0,0,0.1,0,0-0.1c0,0,0-0.1-0.1,0
	l0.1-0.1l0,0c0-0.2,0.1-0.3,0.2-0.5c0.3-0.4,0.6-0.7,0.8-1.1c1.2-1.7,2.1-3.5,3.3-5c0.1-0.1,0.2-0.3,0.2-0.5c0,0,0,0.1-0.1,0
	c0,0-0.1,0,0-0.1l0,0c0.1-0.2-0.1-0.3-0.2-0.5c0,0-0.1,0-0.1,0l0,0.2c-0.2-0.4-0.5-0.7-0.7-1c-0.3-0.1-0.3-0.4-0.5-0.6
	c-0.3-0.6-0.7-1.1-1-1.8c-0.1,0.1,0,0.2,0,0.2c-0.5-0.8-1-1.7-1.5-2.6c0,0,0,0,0,0c-0.2-0.3-0.1-0.7,0-1c0.1-0.2,0.4-0.4,0.5-0.5
	c-0.1-0.1,0-0.2,0.1-0.2c0.2-0.2,0.3-0.5,0.6-0.6c-0.1-0.1,0-0.1,0-0.2c0.1,0,0.2-0.1,0.3-0.2c0.1,0,0.2,0,0.3,0.1
	c0.5,0.6,1,1.3,1.4,2c0.5,0.8,0.9,1.6,1.5,2.3l0,0c0,0,0.1,0.1,0.1,0.1l0,0c0.3,0.6,0.8,1.1,1.2,1.6l0.1,0c0.7-0.8,1.3-1.6,2-2.2
	c0.2-0.2,0.3-0.5,0.6-0.6l0,0l0,0c0.1-0.1,0.2-0.3,0.4-0.4l0,0c0.1-0.1,0.1-0.1,0.2-0.2c1.9-2,3.7-4.1,6.3-5.2
	c0.1-0.1,0.3-0.2,0.5-0.2c0,0.1-0.1,0.1,0,0.2C111.9,137.5,111.5,138,111.2,138.2"/>
</svg>
