<?xml version="1.0" encoding="UTF-8"?>
<svg viewBox="0 0 100 100" version="1.1" xmlns="http://www.w3.org/2000/svg" xmlns:xlink="http://www.w3.org/1999/xlink">
    <!-- Generator: Sketch 51.3 (57544) - http://www.bohemiancoding.com/sketch -->
    <title>/Square/SVG/1354-Mobile-Logo</title>
    <desc>Created with Sketch.</desc>
    <defs>
        <path d="M49.9,6.78 C49.38,5.68 48.24,4.94 46.94,4.94 C45.16,4.94 43.74,6.22 43.74,8.4 C43.74,10.56 45.16,11.84 46.94,11.84 C48.24,11.84 49.38,11.08 49.9,10 L49.9,6.78 Z M51.52,3.74 L51.52,12.86 C51.52,15.38 49.64,17 46.74,17 C45.34,17 43.96,16.6 42.88,16.08 C42.8,15.32 43.04,14.84 43.56,14.84 C43.76,14.84 43.96,14.9 44.34,15.04 C44.86,15.24 45.62,15.54 46.72,15.54 C48.64,15.54 49.88,14.64 49.88,12.8 L49.88,11.74 C49.3,12.5 48.16,13.22 46.58,13.22 C44.26,13.22 42.1,11.34 42.1,8.36 C42.1,5.34 44.28,3.48 46.6,3.48 C48.14,3.48 49.32,4.2 49.9,5 L49.9,4.3 C49.9,3.9 50.12,3.64 50.74,3.64 C51.04,3.64 51.38,3.7 51.52,3.74 Z" id="path-1"></path>
    </defs>
    <g id="1354-Mobile-Logo" stroke="none" stroke-width="1" fill="none" fill-rule="evenodd">
        <g id="Logo/Sky-Sports/UK/Square/Racing">
            <g id="1354-Mobile-Logo">
                <rect id="Rectangle-path" fill="#FFFFFF" fill-rule="nonzero" x="0" y="71.84" width="100" height="28.16"></rect>
                <rect id="Rectangle-path" fill="#EA021A" fill-rule="nonzero" x="0" y="38.8" width="100" height="33.44"></rect>
                <rect id="blue" fill="#002672" fill-rule="nonzero" x="0" y="0" width="100" height="39.56"></rect>
                <g id="sports" transform="translate(11.000000, 45.000000)" fill="#FFFFFF" fill-rule="nonzero">
                    <path d="M0.04,16.42 C-0.1,15.28 0.26,14.64 0.86,14.64 C1.52,14.64 3.12,15.38 5.38,15.38 C7.78,15.38 8.7,14.5 8.7,13.38 C8.7,12.6 8.36,11.96 6.16,11.36 L3.7,10.68 C1.08,9.96 0.02,8.66 0.02,7 C0.02,5 1.62,3.14 5.3,3.14 C6.96,3.14 9.02,3.54 10.24,4.02 C10.38,5.14 10.02,5.74 9.46,5.74 C8.86,5.74 7.34,5.06 5.28,5.06 C3.08,5.06 2.24,5.86 2.24,6.92 C2.24,7.6 2.56,8.24 4.56,8.8 L7.04,9.48 C9.82,10.26 10.92,11.56 10.92,13.32 C10.92,15.46 9.24,17.38 5.28,17.38 C3.54,17.36 1.36,16.94 0.04,16.42" id="Shape"></path>
                    <path d="M27.14,10.22 C27.14,14.66 24.02,17.34 20.54,17.34 C18.42,17.34 16.74,16.36 15.74,14.94 L15.74,20.96 C15.74,21.48 15.46,21.82 14.56,21.82 C14.16,21.82 13.74,21.76 13.54,21.7 L13.54,3.44 C13.74,3.38 14.16,3.3 14.56,3.3 C15.44,3.3 15.74,3.64 15.74,4.16 L15.74,5.54 C16.74,4.12 18.42,3.14 20.54,3.14 C24.02,3.12 27.14,5.82 27.14,10.22 M24.88,10.22 C24.88,7.18 22.86,5.1 20.14,5.1 C18.26,5.1 16.5,6.18 15.74,7.76 L15.74,12.74 C16.52,14.32 18.26,15.4 20.14,15.4 C22.86,15.38 24.88,13.3 24.88,10.22" id="Shape"></path>
                    <path d="M29.34,10.22 C29.34,6.16 32.34,3.12 36.38,3.12 C40.42,3.12 43.42,6.16 43.42,10.22 C43.42,14.3 40.42,17.34 36.38,17.34 C32.34,17.34 29.34,14.3 29.34,10.22 M41.14,10.22 C41.14,7.08 39,5.1 36.36,5.1 C33.72,5.1 31.58,7.08 31.58,10.22 C31.58,13.4 33.72,15.4 36.36,15.4 C39,15.4 41.14,13.38 41.14,10.22" id="Shape"></path>
                    <path d="M54.42,4.36 C54.42,5.18 54.04,5.38 53.24,5.38 C51.66,5.38 49.44,5.9 48.32,8.42 L48.32,16.32 C48.32,16.86 48.04,17.18 47.14,17.18 C46.74,17.18 46.32,17.12 46.12,17.06 L46.12,3.46 C46.32,3.4 46.74,3.32 47.14,3.32 C48.02,3.32 48.32,3.66 48.32,4.18 L48.32,5.84 C49.58,4.04 51.76,3.04 54.32,3.46 C54.36,3.62 54.42,4.02 54.42,4.36" id="Shape"></path>
                    <path d="M64.9,16.42 C63.72,17 62.36,17.34 60.96,17.34 C58.28,17.34 56.64,15.8 56.64,13.14 L56.64,0.9 C56.64,0.38 56.92,0.04 57.82,0.04 C58.22,0.04 58.64,0.12 58.84,0.22 L58.84,3.46 L64.3,3.46 C64.32,3.64 64.38,4 64.38,4.34 C64.38,5.14 64.04,5.4 63.56,5.4 L58.84,5.4 L58.84,12.98 C58.84,14.64 59.64,15.36 61.18,15.36 C62.58,15.36 63.42,14.82 64.06,14.82 C64.7,14.78 65.02,15.36 64.9,16.42" id="Shape"></path>
                    <path d="M67.16,16.42 C67.02,15.28 67.38,14.64 67.98,14.64 C68.64,14.64 70.24,15.38 72.5,15.38 C74.9,15.38 75.82,14.5 75.82,13.38 C75.82,12.6 75.48,11.96 73.28,11.36 L70.82,10.68 C68.2,9.96 67.14,8.66 67.14,7 C67.14,5 68.74,3.14 72.42,3.14 C74.08,3.14 76.14,3.54 77.36,4.02 C77.5,5.14 77.14,5.74 76.58,5.74 C75.98,5.74 74.46,5.06 72.4,5.06 C70.2,5.06 69.36,5.86 69.36,6.92 C69.36,7.6 69.68,8.24 71.68,8.8 L74.16,9.48 C76.94,10.26 78.04,11.56 78.04,13.32 C78.04,15.46 76.36,17.38 72.4,17.38 C70.66,17.36 68.48,16.94 67.16,16.42" id="Shape"></path>
                </g>
                <path d="M59.1,34.44 C59.5,34.64 60.3,34.88 61.32,34.92 C63.06,34.96 64,34.3 64.7,32.74 L74.02,11.96 C73.64,11.76 72.78,11.52 72.08,11.5 C70.88,11.48 69.28,11.72 68.24,14.18 L65.22,21.3 L59.3,11.66 C58.92,11.54 57.98,11.38 57.3,11.38 C55.22,11.38 54.04,12.16 52.84,13.46 L47.08,19.76 L51.7,27.04 C52.56,28.36 53.68,29.04 55.52,29.04 C56.72,29.04 57.72,28.76 58.18,28.54 L52.62,20.14 L56.56,15.96 L63.04,26.12 L59.1,34.44 Z M46.88,26.58 C46.88,28.12 46.28,29 43.28,29 C42.88,29 42.54,28.98 42.2,28.92 L42.2,8.6 C42.2,7.06 42.72,5.44 45.74,5.44 C46.12,5.44 46.5,5.48 46.86,5.56 L46.86,26.58 L46.88,26.58 Z M40.72,23.5 C40.72,26.36 38.86,28.44 35.06,28.86 C32.32,29.16 28.34,28.8 26.44,28.58 C26.36,28.28 26.32,27.88 26.32,27.58 C26.32,25.08 27.68,24.52 28.94,24.52 C30.26,24.52 32.32,24.74 33.86,24.74 C35.56,24.74 36.06,24.16 36.06,23.62 C36.06,22.9 35.38,22.6 34.06,22.36 L30.46,21.66 C27.46,21.08 25.86,19.02 25.86,16.82 C25.86,14.14 27.76,11.92 31.46,11.5 C34.28,11.2 37.7,11.54 39.56,11.76 C39.62,12.08 39.66,12.38 39.66,12.72 C39.66,15.22 38.34,15.74 37.08,15.74 C36.1,15.74 34.6,15.56 32.88,15.56 C31.12,15.56 30.4,16.04 30.4,16.64 C30.4,17.26 31.1,17.52 32.2,17.72 L35.64,18.36 C39.2,19.04 40.72,21.04 40.72,23.5 Z" id="sky" fill="#FFFFFF" fill-rule="nonzero"></path>
                <g id="Racing" transform="translate(24.000000, 78.500000)">
                    <path d="M6.36,4.26 C6.36,4.88 6.08,5.04 5.5,5.04 C4.4,5.04 2.86,5.4 2.1,7.12 L2.1,12.58 C2.1,12.98 1.9,13.2 1.24,13.2 C0.96,13.2 0.64,13.16 0.48,13.12 L0.48,3.58 C0.64,3.54 0.96,3.5 1.24,3.5 C1.9,3.5 2.1,3.74 2.1,4.12 L2.1,5.26 C3,3.96 4.5,3.3 6.3,3.58 C6.32,3.72 6.36,4 6.36,4.26" id="Shape" fill="#002672" fill-rule="nonzero"></path>
                    <path d="M15.66,7.06 L15.66,13.14 C15.5,13.18 15.22,13.22 14.96,13.22 C14.4,13.22 14.16,13.02 14.16,12.64 L14.16,11.92 L14.14,11.92 C13.42,12.66 12.3,13.34 10.8,13.34 C8.68,13.34 7.52,11.94 7.52,10.4 C7.52,8.14 9.96,7.08 14.14,7.36 L14.14,7.12 C14.14,5.62 13.66,4.8 11.82,4.8 C10.84,4.8 10.02,5 9.46,5.16 C9.18,5.24 8.96,5.3 8.8,5.3 C8.38,5.3 8.12,4.88 8.22,4.08 C9.12,3.72 10.52,3.4 11.86,3.4 C14.64,3.4 15.66,4.8 15.66,7.06 Z M14.14,10.36 L14.14,8.56 C11.42,8.44 9.06,8.74 9.06,10.44 C9.06,11.28 9.78,12.02 11,12.02 C12.24,12.02 13.4,11.34 14.14,10.36 Z" id="Shape" fill="#002672" fill-rule="nonzero"></path>
                    <path d="M17.82,8.36 C17.82,5.56 19.9,3.5 22.62,3.5 C23.82,3.5 24.84,3.8 25.68,4.2 C25.78,5.1 25.46,5.4 25.04,5.4 C24.54,5.4 23.92,4.9 22.62,4.9 C20.94,4.9 19.46,6.22 19.46,8.36 C19.46,10.1 20.42,11.3 21.68,11.7 C21.98,11.8 22.3,11.84 22.62,11.84 C23.9,11.84 24.54,11.34 25.04,11.34 C25.46,11.34 25.76,11.64 25.68,12.54 C24.86,12.94 23.82,13.26 22.62,13.26 C19.88,13.26 17.82,11.16 17.82,8.36 Z" id="SVGID_1_" fill="#002672" fill-rule="nonzero"></path>
                    <path d="M27.82,13.24 L27.82,4.12 C27.82,3.72 28.04,3.48 28.72,3.48 C29,3.48 29.34,3.52 29.48,3.56 L29.48,12.66 C29.48,13.06 29.26,13.3 28.58,13.3 C28.32,13.32 28,13.28 27.82,13.24 Z M27.6,1.26 C27.6,0.64 28.08,0.2 28.68,0.2 C29.28,0.2 29.74,0.64 29.74,1.26 C29.74,1.8 29.28,2.32 28.68,2.32 C28.08,2.32 27.6,1.82 27.6,1.26 Z" id="SVGID_5_" fill="#002672" fill-rule="nonzero"></path>
                    <path d="M31.84,13.12 L31.84,3.7 C32,3.66 32.32,3.62 32.6,3.62 C33.22,3.62 33.4,3.88 33.4,4.26 L33.4,4.96 C34.12,4.16 35.18,3.52 36.6,3.52 C38.54,3.52 40.14,4.74 40.14,7.56 L40.14,12.62 C40.14,13 39.92,13.24 39.26,13.24 C38.98,13.24 38.68,13.2 38.52,13.16 L38.52,7.76 C38.52,5.86 37.58,4.96 36.18,4.96 C35.06,4.96 33.92,5.7 33.42,6.6 L33.42,12.6 C33.42,12.98 33.22,13.22 32.56,13.22 C32.32,13.2 31.98,13.16 31.84,13.12 Z" id="SVGID_7_" fill="#002672" fill-rule="nonzero"></path>
                    <mask id="mask-2" fill="white">
                        <use xlink:href="#path-1"></use>
                    </mask>
                    <use id="path-9" fill="#002672" xlink:href="#path-1"></use>
                </g>
            </g>
        </g>
    </g>
</svg>